<svg width="40" height="40" viewBox="0 0 40 40" fill="none" xmlns="http://www.w3.org/2000/svg">
<path d="M35 3.33331H5.00001C4.55798 3.33331 4.13406 3.50891 3.8215 3.82147C3.50894 4.13403 3.33334 4.55795 3.33334 4.99998V35C3.33334 35.442 3.50894 35.8659 3.8215 36.1785C4.13406 36.491 4.55798 36.6666 5.00001 36.6666H35C35.442 36.6666 35.866 36.491 36.1785 36.1785C36.4911 35.8659 36.6667 35.442 36.6667 35V4.99998C36.6667 4.55795 36.4911 4.13403 36.1785 3.82147C35.866 3.50891 35.442 3.33331 35 3.33331ZM29.5317 17.875C29.35 17.8933 29.1667 17.9016 28.985 17.9033C27.9962 17.9046 27.0226 17.6595 26.1522 17.1901C25.2819 16.7208 24.5422 16.0419 24 15.215V24.37C24.0003 25.7088 23.6036 27.0176 22.86 28.1309C22.1164 29.2442 21.0594 30.112 19.8226 30.6244C18.5858 31.1369 17.2247 31.2711 15.9116 31.01C14.5986 30.7489 13.3924 30.1042 12.4457 29.1576C11.4991 28.2109 10.8544 27.0048 10.5933 25.6917C10.3322 24.3786 10.4664 23.0176 10.9789 21.7807C11.4914 20.5439 12.3591 19.4869 13.4724 18.7433C14.5857 17.9997 15.8945 17.603 17.2333 17.6033C17.375 17.6033 17.5117 17.6166 17.6517 17.625V20.9583C17.1854 20.9018 16.7124 20.9413 16.262 21.0743C15.8115 21.2073 15.3929 21.431 15.0321 21.7317C14.6712 22.0324 14.3757 22.4037 14.1636 22.8228C13.9515 23.2419 13.8274 23.6999 13.7988 24.1688C13.7702 24.6376 13.8378 25.1073 13.9975 25.5491C14.1571 25.9908 14.4054 26.3953 14.727 26.7376C15.0487 27.0798 15.437 27.3527 15.868 27.5394C16.299 27.7261 16.7636 27.8228 17.2333 27.8233C18.1603 27.8401 19.0568 27.4924 19.73 26.855C20.4033 26.2176 20.7994 25.3415 20.8333 24.415L20.8667 8.86331H24.0567C24.2023 10.2491 24.8305 11.5395 25.8313 12.509C26.8322 13.4784 28.142 14.0652 29.5317 14.1666V17.875Z" fill="#86469C"/>
</svg>
