<svg width="33" height="33" viewBox="0 0 33 33" fill="none" xmlns="http://www.w3.org/2000/svg">
<g clip-path="url(#clip0_32_97)">
<path fill-rule="evenodd" clip-rule="evenodd" d="M17.6264 33H1.82135C0.815149 33 0 32.1843 0 31.1785V1.82134C0 0.815275 0.815277 0 1.82135 0H31.1788C32.1846 0 33 0.815275 33 1.82134V31.1785C33 32.1845 32.1845 33 31.1788 33H22.7695V20.2206H27.059L27.7013 15.2402H22.7695V12.0606C22.7695 10.6186 23.1699 9.636 25.2376 9.636L27.8749 9.63485V5.18038C27.4188 5.11968 25.8533 4.98408 24.0319 4.98408C20.2296 4.98408 17.6264 7.30505 17.6264 11.5673V15.2402H13.3259V20.2206H17.6264V33Z" fill="#86469C"/>
</g>
<defs>
<clipPath id="clip0_32_97">
<rect width="33" height="33" fill="white"/>
</clipPath>
</defs>
</svg>
