<svg width="20" height="18" viewBox="0 0 20 18" fill="none" xmlns="http://www.w3.org/2000/svg">
<g clip-path="url(#clip0_50_2)">
<path d="M3.64568 0.762774C2.29294 1.5649 2.02719 4.07221 2.53792 6.11573C2.93567 7.70712 3.7813 9.84184 5.20726 11.852C6.54871 13.7431 8.42021 15.4387 9.84725 16.4198C11.6798 17.6795 14.2921 18.4802 15.6448 17.6781C16.3289 17.2725 17.3451 16.1643 17.3915 15.9655C17.3915 15.9655 16.7956 15.1254 16.6648 14.941L14.6663 12.1238C14.5178 11.9144 13.5865 12.1058 13.1134 12.3508C12.4752 12.6814 11.8875 13.5685 11.8875 13.5685C11.4499 13.7996 11.0834 13.5693 10.3176 13.2471C9.37636 12.8511 8.31816 11.621 7.47594 10.5068C6.70671 9.3493 5.90971 7.96418 5.89817 7.017C5.88867 6.24631 5.80816 5.84644 6.21748 5.57538C6.21748 5.57538 7.34305 5.4465 7.93348 5.0486C8.37111 4.75357 8.94201 4.05417 8.7935 3.84478L6.79507 1.02757C6.66429 0.843211 6.06836 0.00311765 6.06836 0.00311765C5.85084 -0.0392456 4.32971 0.357176 3.64568 0.762774Z" fill="#86469C"/>
</g>
<defs>
<clipPath id="clip0_50_2">
<rect width="19.6875" height="18" fill="white"/>
</clipPath>
</defs>
</svg>
