<svg width="322" height="126" viewBox="0 0 322 126" fill="none" xmlns="http://www.w3.org/2000/svg">
<path d="M303.102 58.2357C302.546 58.2357 302.119 57.9973 301.821 57.5206C301.523 57.0439 301.493 56.5374 301.731 56.001L310.104 36.0083C310.402 35.3131 310.888 34.9655 311.564 34.9655C312.279 34.9655 312.766 35.3131 313.024 36.0083L321.426 56.0606C321.645 56.6168 321.605 57.1233 321.307 57.5802C321.029 58.0172 320.602 58.2357 320.026 58.2357C319.728 58.2357 319.44 58.1563 319.162 57.9973C318.903 57.8186 318.715 57.5802 318.596 57.2823L311.206 38.9283H312.041L304.532 57.2823C304.393 57.6001 304.184 57.8384 303.906 57.9973C303.648 58.1563 303.38 58.2357 303.102 58.2357ZM304.681 53.1109L305.873 50.5485H317.553L318.745 53.1109H304.681Z" fill="#302460"/>
<path d="M286.428 58.2357C285.991 58.2357 285.624 58.0867 285.326 57.7888C285.048 57.4908 284.909 57.1233 284.909 56.6863V36.5148C284.909 36.0778 285.058 35.7103 285.356 35.4124C285.654 35.1144 286.011 34.9655 286.428 34.9655C286.865 34.9655 287.233 35.1144 287.531 35.4124C287.829 35.7103 287.978 36.0778 287.978 36.5148V55.137H298.764C299.201 55.137 299.568 55.286 299.866 55.5839C300.164 55.8819 300.313 56.2493 300.313 56.6863C300.313 57.1233 300.164 57.4908 299.866 57.7888C299.568 58.0867 299.201 58.2357 298.764 58.2357H286.428Z" fill="#302460"/>
<path d="M265.596 58.2357C265.159 58.2357 264.791 58.0867 264.493 57.7888C264.195 57.4908 264.046 57.1233 264.046 56.6863V36.5148C264.046 36.058 264.195 35.6905 264.493 35.4124C264.791 35.1144 265.159 34.9655 265.596 34.9655H279.063C279.52 34.9655 279.887 35.1045 280.165 35.3826C280.444 35.6408 280.583 35.9884 280.583 36.4254C280.583 36.8426 280.444 37.1802 280.165 37.4385C279.887 37.6967 279.52 37.8258 279.063 37.8258H267.145V45.0661H275.696C276.153 45.0661 276.521 45.2052 276.799 45.4833C277.077 45.7415 277.216 46.0792 277.216 46.4963C277.216 46.9134 277.077 47.261 276.799 47.5391C276.521 47.7974 276.153 47.9265 275.696 47.9265H267.145V55.3753H279.063C279.52 55.3753 279.887 55.5045 280.165 55.7627C280.444 56.0209 280.583 56.3586 280.583 56.7757C280.583 57.2127 280.444 57.5703 280.165 57.8484C279.887 58.1066 279.52 58.2357 279.063 58.2357H265.596Z" fill="#302460"/>
<path d="M242.173 58.2357C241.616 58.2357 241.189 57.9973 240.891 57.5206C240.593 57.0439 240.564 56.5374 240.802 56.001L249.175 36.0083C249.472 35.3131 249.959 34.9655 250.634 34.9655C251.35 34.9655 251.836 35.3131 252.094 36.0083L260.497 56.0606C260.715 56.6168 260.676 57.1233 260.378 57.5802C260.1 58.0172 259.672 58.2357 259.096 58.2357C258.798 58.2357 258.51 58.1563 258.232 57.9973C257.974 57.8186 257.785 57.5802 257.666 57.2823L250.277 38.9283H251.111L243.603 57.2823C243.464 57.6001 243.255 57.8384 242.977 57.9973C242.719 58.1563 242.451 58.2357 242.173 58.2357ZM243.752 53.1109L244.944 50.5485H256.623L257.815 53.1109H243.752Z" fill="#302460"/>
<path d="M218.691 58.2357C218.254 58.2357 217.886 58.0867 217.589 57.7888C217.291 57.4908 217.142 57.1233 217.142 56.6863V36.5148C217.142 36.058 217.291 35.6905 217.589 35.4124C217.886 35.1144 218.254 34.9655 218.691 34.9655C219.148 34.9655 219.515 35.1144 219.793 35.4124C220.091 35.6905 220.24 36.058 220.24 36.5148V45.0661H234.065V36.5148C234.065 36.058 234.214 35.6905 234.512 35.4124C234.81 35.1144 235.178 34.9655 235.615 34.9655C236.072 34.9655 236.439 35.1144 236.717 35.4124C236.995 35.6905 237.134 36.058 237.134 36.5148V56.6863C237.134 57.1233 236.995 57.4908 236.717 57.7888C236.439 58.0867 236.072 58.2357 235.615 58.2357C235.178 58.2357 234.81 58.0867 234.512 57.7888C234.214 57.4908 234.065 57.1233 234.065 56.6863V47.8073H220.24V56.6863C220.24 57.1233 220.091 57.4908 219.793 57.7888C219.515 58.0867 219.148 58.2357 218.691 58.2357Z" fill="#302460"/>
<path d="M204.409 58.5337C202.8 58.5337 201.29 58.2358 199.88 57.6398C198.489 57.0241 197.268 56.1799 196.215 55.1072C195.182 54.0147 194.368 52.7435 193.772 51.2934C193.196 49.8434 192.908 48.2741 192.908 46.5857C192.908 44.9172 193.196 43.3678 193.772 41.9376C194.368 40.4876 195.182 39.2262 196.215 38.1536C197.268 37.0611 198.489 36.207 199.88 35.5912C201.27 34.9754 202.78 34.6675 204.409 34.6675C205.938 34.6675 207.249 34.8662 208.342 35.2635C209.454 35.6607 210.566 36.3162 211.679 37.23C211.838 37.3491 211.957 37.4782 212.036 37.6173C212.136 37.7365 212.195 37.8656 212.215 38.0046C212.255 38.1238 212.275 38.2728 212.275 38.4516C212.275 38.829 212.136 39.1468 211.858 39.405C211.599 39.6434 211.281 39.7824 210.904 39.8222C210.527 39.842 210.159 39.7129 209.802 39.4348C209.067 38.7992 208.302 38.3125 207.507 37.9748C206.733 37.6372 205.7 37.4683 204.409 37.4683C203.237 37.4683 202.134 37.7067 201.101 38.1834C200.068 38.6601 199.155 39.3156 198.36 40.1499C197.585 40.9842 196.98 41.9575 196.543 43.0699C196.106 44.1624 195.887 45.3343 195.887 46.5857C195.887 47.857 196.106 49.0488 196.543 50.1612C196.98 51.2537 197.585 52.2171 198.36 53.0513C199.155 53.8856 200.068 54.5411 201.101 55.0178C202.134 55.4747 203.237 55.7031 204.409 55.7031C205.422 55.7031 206.375 55.5343 207.269 55.1966C208.183 54.8391 209.057 54.3524 209.891 53.7366C210.249 53.4784 210.596 53.3692 210.934 53.4089C211.291 53.4288 211.589 53.5678 211.828 53.826C212.066 54.0644 212.185 54.4021 212.185 54.8391C212.185 55.0377 212.146 55.2363 212.066 55.435C211.987 55.6138 211.867 55.7826 211.709 55.9415C210.636 56.7956 209.484 57.4412 208.252 57.8782C207.041 58.3152 205.759 58.5337 204.409 58.5337Z" fill="#302460"/>
<path d="M174.667 58.2357C174.23 58.2357 173.862 58.0867 173.564 57.7888C173.267 57.4908 173.118 57.1233 173.118 56.6863V36.5148C173.118 36.058 173.267 35.6905 173.564 35.4124C173.862 35.1144 174.23 34.9655 174.667 34.9655H188.134C188.591 34.9655 188.959 35.1045 189.237 35.3826C189.515 35.6408 189.654 35.9884 189.654 36.4254C189.654 36.8426 189.515 37.1802 189.237 37.4385C188.959 37.6967 188.591 37.8258 188.134 37.8258H176.216V45.0661H184.768C185.224 45.0661 185.592 45.2052 185.87 45.4833C186.148 45.7415 186.287 46.0792 186.287 46.4963C186.287 46.9134 186.148 47.261 185.87 47.5391C185.592 47.7974 185.224 47.9265 184.768 47.9265H176.216V55.3753H188.134C188.591 55.3753 188.959 55.5045 189.237 55.7627C189.515 56.0209 189.654 56.3586 189.654 56.7757C189.654 57.2127 189.515 57.5703 189.237 57.8484C188.959 58.1066 188.591 58.2357 188.134 58.2357H174.667Z" fill="#302460"/>
<path d="M145.395 58.2357C144.958 58.2357 144.591 58.0867 144.293 57.7888C143.995 57.4908 143.846 57.1233 143.846 56.6863V36.5148C143.846 36.058 143.995 35.6905 144.293 35.4124C144.591 35.1144 144.958 34.9655 145.395 34.9655C145.991 34.9655 146.448 35.2435 146.766 35.7997L156.092 54.4815H155.138L164.226 35.7997C164.544 35.2435 165.001 34.9655 165.597 34.9655C166.034 34.9655 166.401 35.1144 166.699 35.4124C166.997 35.6905 167.146 36.058 167.146 36.5148V56.6863C167.146 57.1233 166.987 57.4908 166.669 57.7888C166.371 58.0867 166.014 58.2357 165.597 58.2357C165.16 58.2357 164.792 58.0867 164.494 57.7888C164.196 57.4908 164.047 57.1233 164.047 56.6863V40.8054L164.643 40.6564L156.837 56.5672C156.499 57.0836 156.052 57.3418 155.496 57.3418C154.84 57.3418 154.364 57.034 154.066 56.4182L146.349 40.9543L146.945 40.8054V56.6863C146.945 57.1233 146.796 57.4908 146.498 57.7888C146.2 58.0867 145.832 58.2357 145.395 58.2357Z" fill="#302460"/>
<path d="M260.875 101.877C261.037 101.849 261.21 101.825 261.394 101.803C261.584 101.775 261.771 101.754 261.955 101.74C262.146 101.726 262.329 101.715 262.506 101.708C262.683 101.701 262.845 101.697 262.993 101.697C263.339 101.697 263.678 101.729 264.01 101.793C264.349 101.856 264.649 101.966 264.911 102.121C265.179 102.277 265.391 102.492 265.546 102.767C265.709 103.036 265.79 103.375 265.79 103.784C265.79 104.392 265.649 104.886 265.366 105.268C265.084 105.649 264.706 105.914 264.233 106.062L264.752 106.391L266.447 109.219H264.773L263.089 106.316L262.326 106.179V109.219H260.875V101.877ZM263.099 102.99C262.951 102.99 262.803 102.993 262.654 103C262.513 103.008 262.404 103.022 262.326 103.043V105.193H262.94C263.343 105.193 263.664 105.102 263.904 104.918C264.145 104.734 264.265 104.431 264.265 104.007C264.265 103.689 264.166 103.442 263.968 103.265C263.77 103.082 263.481 102.99 263.099 102.99Z" fill="#8C58CF"/>
<path d="M251.314 101.803H255.71V103.096H252.765V104.823H255.446V106.115H252.765V107.927H255.763V109.219H251.314V101.803Z" fill="#8C58CF"/>
<path d="M241.226 101.877C241.522 101.821 241.847 101.779 242.2 101.75C242.561 101.715 242.917 101.697 243.27 101.697C243.638 101.697 244.005 101.729 244.372 101.793C244.746 101.849 245.082 101.969 245.379 102.153C245.675 102.329 245.915 102.58 246.099 102.905C246.29 103.223 246.385 103.64 246.385 104.155C246.385 104.621 246.304 105.017 246.141 105.342C245.979 105.66 245.763 105.921 245.495 106.126C245.227 106.33 244.919 106.479 244.573 106.571C244.234 106.662 243.881 106.708 243.514 106.708C243.479 106.708 243.422 106.708 243.344 106.708C243.267 106.708 243.186 106.708 243.101 106.708C243.016 106.701 242.931 106.694 242.847 106.687C242.769 106.68 242.712 106.673 242.677 106.666V109.219H241.226V101.877ZM243.387 102.947C243.246 102.947 243.111 102.955 242.984 102.969C242.857 102.976 242.755 102.986 242.677 103V105.405C242.705 105.412 242.748 105.419 242.804 105.426C242.861 105.434 242.921 105.441 242.984 105.448C243.048 105.448 243.108 105.448 243.164 105.448C243.228 105.448 243.274 105.448 243.302 105.448C243.493 105.448 243.68 105.43 243.864 105.395C244.054 105.359 244.224 105.296 244.372 105.204C244.52 105.105 244.637 104.971 244.722 104.801C244.814 104.632 244.859 104.409 244.859 104.134C244.859 103.901 244.817 103.71 244.732 103.562C244.648 103.407 244.535 103.283 244.393 103.191C244.259 103.099 244.104 103.036 243.927 103C243.751 102.965 243.57 102.947 243.387 102.947Z" fill="#8C58CF"/>
<path d="M229.87 105.511C229.87 104.275 230.142 103.325 230.686 102.661C231.229 101.99 232.006 101.655 233.016 101.655C233.546 101.655 234.009 101.747 234.404 101.93C234.8 102.114 235.128 102.375 235.389 102.714C235.651 103.053 235.845 103.459 235.972 103.933C236.099 104.406 236.163 104.932 236.163 105.511C236.163 106.747 235.887 107.701 235.336 108.372C234.793 109.035 234.019 109.367 233.016 109.367C232.48 109.367 232.013 109.276 231.618 109.092C231.222 108.908 230.894 108.647 230.633 108.308C230.378 107.969 230.188 107.563 230.061 107.09C229.933 106.616 229.87 106.09 229.87 105.511ZM231.395 105.511C231.395 105.885 231.427 106.232 231.491 106.549C231.554 106.86 231.65 107.129 231.777 107.355C231.911 107.581 232.08 107.757 232.285 107.884C232.49 108.011 232.734 108.075 233.016 108.075C233.532 108.075 233.931 107.874 234.213 107.471C234.496 107.068 234.637 106.415 234.637 105.511C234.637 105.151 234.605 104.815 234.542 104.505C234.485 104.194 234.393 103.922 234.266 103.689C234.139 103.456 233.973 103.276 233.768 103.149C233.564 103.015 233.313 102.947 233.016 102.947C232.501 102.947 232.102 103.156 231.819 103.572C231.537 103.982 231.395 104.628 231.395 105.511Z" fill="#8C58CF"/>
<path d="M226.311 109.219H221.618V101.803H223.07V107.927H226.311V109.219Z" fill="#8C58CF"/>
<path d="M212.058 101.803H216.454V103.096H213.509V104.823H216.189V106.115H213.509V107.927H216.507V109.219H212.058V101.803Z" fill="#8C58CF"/>
<path d="M204.096 106.157L204.286 107.418H204.339L204.551 106.147L205.971 101.803H207.496L204.742 109.272H203.704L200.928 101.803H202.612L204.096 106.157Z" fill="#8C58CF"/>
<path d="M192.098 101.803H196.495V103.096H193.55V104.823H196.23V106.115H193.55V107.927H196.548V109.219H192.098V101.803Z" fill="#8C58CF"/>
<path d="M181.214 101.803C181.362 101.782 181.528 101.764 181.711 101.75C181.902 101.736 182.096 101.726 182.294 101.719C182.492 101.712 182.683 101.708 182.866 101.708C183.057 101.701 183.226 101.697 183.375 101.697C184.031 101.697 184.593 101.789 185.059 101.973C185.525 102.156 185.903 102.414 186.193 102.746C186.482 103.078 186.694 103.474 186.828 103.933C186.962 104.392 187.03 104.897 187.03 105.448C187.03 105.949 186.966 106.433 186.839 106.899C186.712 107.365 186.5 107.778 186.203 108.139C185.907 108.499 185.515 108.788 185.027 109.007C184.547 109.226 183.95 109.336 183.237 109.336C183.124 109.336 182.972 109.332 182.781 109.325C182.598 109.318 182.404 109.307 182.199 109.293C182.001 109.286 181.81 109.276 181.627 109.261C181.443 109.254 181.305 109.244 181.214 109.23V101.803ZM183.491 102.99C183.336 102.99 183.177 102.993 183.014 103C182.859 103.008 182.743 103.018 182.665 103.032V108.001C182.693 108.008 182.739 108.015 182.803 108.022C182.873 108.022 182.947 108.026 183.025 108.033C183.103 108.033 183.177 108.036 183.248 108.043C183.318 108.043 183.371 108.043 183.406 108.043C183.816 108.043 184.155 107.973 184.423 107.831C184.699 107.683 184.914 107.489 185.07 107.249C185.232 107.008 185.345 106.733 185.409 106.422C185.472 106.104 185.504 105.78 185.504 105.448C185.504 105.158 185.476 104.869 185.419 104.579C185.363 104.282 185.257 104.017 185.101 103.784C184.953 103.551 184.748 103.361 184.487 103.212C184.226 103.064 183.894 102.99 183.491 102.99Z" fill="#8C58CF"/>
<path d="M169.213 103.53C169.213 103.714 169.189 103.897 169.139 104.081C169.097 104.265 169.023 104.434 168.917 104.59C168.811 104.738 168.673 104.872 168.503 104.992C168.334 105.105 168.129 105.19 167.889 105.246V105.31C168.101 105.345 168.302 105.405 168.493 105.49C168.684 105.575 168.85 105.691 168.991 105.84C169.132 105.988 169.242 106.168 169.319 106.38C169.404 106.592 169.446 106.843 169.446 107.132C169.446 107.513 169.365 107.845 169.203 108.128C169.04 108.403 168.821 108.629 168.546 108.806C168.277 108.982 167.97 109.113 167.624 109.198C167.278 109.283 166.921 109.325 166.554 109.325C166.434 109.325 166.279 109.325 166.088 109.325C165.904 109.325 165.703 109.318 165.484 109.304C165.272 109.297 165.053 109.283 164.827 109.261C164.608 109.24 164.407 109.208 164.224 109.166V101.856C164.358 101.835 164.51 101.814 164.679 101.793C164.856 101.772 165.043 101.754 165.241 101.74C165.438 101.726 165.64 101.715 165.844 101.708C166.056 101.701 166.265 101.697 166.469 101.697C166.815 101.697 167.151 101.726 167.476 101.782C167.808 101.832 168.101 101.923 168.355 102.058C168.616 102.192 168.825 102.379 168.98 102.619C169.136 102.859 169.213 103.163 169.213 103.53ZM166.565 108.128C166.741 108.128 166.911 108.107 167.073 108.064C167.243 108.022 167.391 107.958 167.518 107.874C167.645 107.782 167.748 107.669 167.825 107.535C167.903 107.4 167.942 107.242 167.942 107.058C167.942 106.825 167.896 106.641 167.804 106.507C167.712 106.373 167.592 106.27 167.444 106.2C167.296 106.122 167.13 106.073 166.946 106.051C166.763 106.03 166.579 106.02 166.395 106.02H165.622V108.064C165.657 108.078 165.714 108.089 165.791 108.096C165.869 108.103 165.95 108.11 166.035 108.117C166.127 108.117 166.219 108.121 166.311 108.128C166.409 108.128 166.494 108.128 166.565 108.128ZM166.088 104.918C166.187 104.918 166.3 104.914 166.427 104.907C166.561 104.9 166.671 104.89 166.755 104.876C167.024 104.791 167.253 104.664 167.444 104.494C167.642 104.325 167.741 104.102 167.741 103.827C167.741 103.643 167.705 103.491 167.635 103.371C167.564 103.251 167.469 103.156 167.349 103.085C167.236 103.015 167.105 102.965 166.957 102.937C166.808 102.909 166.653 102.895 166.491 102.895C166.307 102.895 166.137 102.898 165.982 102.905C165.827 102.912 165.707 102.923 165.622 102.937V104.918H166.088Z" fill="#8C58CF"/>
<path d="M154.663 101.803H159.059V103.096H156.114V104.823H158.794V106.115H156.114V107.927H159.112V109.219H154.663V101.803Z" fill="#8C58CF"/>
<path d="M143.43 105.946L143.568 107.259H143.61L143.758 105.924L145.051 101.803H146.004L147.276 105.946L147.424 107.259H147.466L147.625 105.924L148.526 101.803H149.998L147.954 109.272H146.979L145.655 105.151L145.475 104.017H145.422L145.242 105.162L143.928 109.272H142.9L140.866 101.803H142.445L143.43 105.946Z" fill="#8C58CF"/>
<path d="M224.65 83.3963C224.244 83.3963 223.952 83.2286 223.776 82.8931C223.599 82.5577 223.581 82.231 223.723 81.9132L231.509 63.4268C231.703 62.95 232.039 62.7117 232.516 62.7117C232.975 62.7117 233.301 62.95 233.496 63.4268L241.309 81.9397C241.468 82.2752 241.441 82.6018 241.229 82.9196C241.035 83.2374 240.752 83.3963 240.382 83.3963C240.17 83.3963 239.976 83.3434 239.799 83.2374C239.64 83.1315 239.508 82.9726 239.402 82.7607L232.118 65.0953H232.939L225.603 82.7607C225.515 82.9726 225.382 83.1315 225.206 83.2374C225.047 83.3434 224.862 83.3963 224.65 83.3963ZM226.398 78.4702L227.192 76.6957H237.945L238.74 78.4702H226.398Z" fill="#4D3C93"/>
<path d="M204.966 83.3963C204.666 83.3963 204.419 83.2992 204.225 83.105C204.03 82.9108 203.933 82.6636 203.933 82.3634V63.7446C203.933 63.4444 204.03 63.1972 204.225 63.003C204.419 62.8088 204.666 62.7117 204.966 62.7117C205.284 62.7117 205.549 62.8353 205.761 63.0825L218.421 79.7149V63.7446C218.421 63.4444 218.518 63.1972 218.712 63.003C218.906 62.8088 219.153 62.7117 219.453 62.7117C219.736 62.7117 219.974 62.8088 220.169 63.003C220.38 63.1972 220.486 63.4444 220.486 63.7446V82.3634C220.486 82.6636 220.38 82.9108 220.169 83.105C219.974 83.2992 219.736 83.3963 219.453 83.3963C219.312 83.3963 219.171 83.3699 219.03 83.3169C218.888 83.2639 218.774 83.1756 218.685 83.052L205.999 66.4195V82.3634C205.999 82.6636 205.893 82.9108 205.681 83.105C205.487 83.2992 205.249 83.3963 204.966 83.3963Z" fill="#4D3C93"/>
<path d="M190.47 83.8201C188.863 83.8201 187.433 83.5111 186.18 82.8931C184.944 82.2752 183.973 81.4188 183.266 80.3241C182.578 79.2294 182.233 77.9758 182.233 76.5632V63.7446C182.233 63.4444 182.331 63.1972 182.525 63.003C182.719 62.8088 182.966 62.7117 183.266 62.7117C183.566 62.7117 183.814 62.8088 184.008 63.003C184.202 63.1972 184.299 63.4444 184.299 63.7446V76.5632C184.299 77.605 184.555 78.5231 185.067 79.3177C185.597 80.1122 186.33 80.739 187.266 81.1981C188.201 81.6395 189.27 81.8602 190.47 81.8602C191.653 81.8602 192.704 81.6395 193.622 81.1981C194.54 80.739 195.255 80.1122 195.767 79.3177C196.297 78.5231 196.562 77.605 196.562 76.5632V63.7446C196.562 63.4444 196.659 63.1972 196.853 63.003C197.047 62.8088 197.294 62.7117 197.595 62.7117C197.912 62.7117 198.16 62.8088 198.336 63.003C198.53 63.1972 198.628 63.4444 198.628 63.7446V76.5632C198.628 77.9758 198.274 79.2294 197.568 80.3241C196.88 81.4188 195.917 82.2752 194.681 82.8931C193.463 83.5111 192.059 83.8201 190.47 83.8201Z" fill="#4D3C93"/>
<path d="M164.929 83.3963C164.629 83.3963 164.381 83.2992 164.187 83.105C163.993 82.9108 163.896 82.6636 163.896 82.3634V63.7446C163.896 63.4444 163.993 63.1972 164.187 63.003C164.381 62.8088 164.629 62.7117 164.929 62.7117H177.35C177.633 62.7117 177.871 62.8088 178.065 63.003C178.277 63.1796 178.383 63.4179 178.383 63.7181C178.383 63.9829 178.277 64.2125 178.065 64.4067C177.871 64.6009 177.633 64.698 177.35 64.698H165.962V72.0079H174.251C174.551 72.0079 174.799 72.105 174.993 72.2992C175.187 72.4934 175.284 72.7318 175.284 73.0143C175.284 73.2968 175.187 73.5351 174.993 73.7294C174.799 73.9236 174.551 74.0207 174.251 74.0207H165.962V81.41H177.35C177.633 81.41 177.871 81.5071 178.065 81.7013C178.277 81.8955 178.383 82.1251 178.383 82.3899C178.383 82.6901 178.277 82.9373 178.065 83.1315C177.871 83.3081 177.633 83.3963 177.35 83.3963H164.929Z" fill="#4D3C93"/>
<path d="M144.548 83.3963C144.248 83.3963 144 83.2992 143.806 83.105C143.612 82.9108 143.515 82.6636 143.515 82.3634V63.7446C143.515 63.4444 143.612 63.1972 143.806 63.003C144 62.8088 144.248 62.7117 144.548 62.7117H149.315C150.833 62.7117 152.219 62.9677 153.473 63.4797C154.744 63.9741 155.839 64.6892 156.757 65.625C157.675 66.5431 158.382 67.629 158.876 68.8826C159.388 70.1363 159.644 71.5223 159.644 73.0408C159.644 74.5592 159.388 75.9541 158.876 77.2254C158.382 78.479 157.675 79.5737 156.757 80.5095C155.839 81.4276 154.744 82.1427 153.473 82.6548C152.219 83.1492 150.833 83.3963 149.315 83.3963H144.548ZM145.581 81.5424H149.315C150.939 81.5424 152.37 81.1804 153.606 80.4565C154.859 79.7149 155.839 78.7085 156.545 77.4373C157.252 76.1483 157.605 74.6828 157.605 73.0408C157.605 71.3987 157.252 69.942 156.545 68.6708C155.839 67.3818 154.859 66.3754 153.606 65.6515C152.37 64.9276 150.939 64.5656 149.315 64.5656H145.581V81.5424Z" fill="#4D3C93"/>
<path fill-rule="evenodd" clip-rule="evenodd" d="M141.363 96.1422C141.363 95.6851 141.733 95.3145 142.191 95.3145H264.352C264.809 95.3145 265.18 95.6851 265.18 96.1422C265.18 96.5993 264.809 96.9698 264.352 96.9698H142.191C141.733 96.9698 141.363 96.5993 141.363 96.1422Z" fill="black"/>
<path fill-rule="evenodd" clip-rule="evenodd" d="M68.5305 124.137C67.8717 124.138 67.2641 123.782 66.9417 123.208L0.232969 4.35698C-0.0835031 3.79316 -0.077229 3.10379 0.249457 2.54581C0.576133 1.98783 1.17421 1.64494 1.82079 1.64494L135.238 1.64494C136.244 1.64494 137.059 2.46015 137.059 3.46577C137.059 4.47139 136.244 5.28661 135.238 5.28661L4.93083 5.28661L68.5276 118.593L79.2923 99.3663C79.7835 98.4888 80.8931 98.1758 81.7706 98.6671C82.648 99.1583 82.9611 100.268 82.4698 101.145L70.1183 123.206C69.7965 123.781 69.1893 124.137 68.5305 124.137Z" fill="url(#paint0_radial_12_351)"/>
<path fill-rule="evenodd" clip-rule="evenodd" d="M78.0885 50.1013C77.3849 52.7229 77.5846 55.9896 79.4188 59.9163C79.8444 60.8274 79.4508 61.911 78.5396 62.3366C77.6285 62.7622 76.5449 62.3686 76.1193 61.4575C73.9886 56.8961 73.6079 52.747 74.5713 49.1573C75.5313 45.5804 77.7749 42.7482 80.5589 40.7143C86.0275 36.7192 93.9617 35.5464 99.5656 38.055C99.5726 38.0582 99.5796 38.0614 99.5866 38.0646C106.97 41.4827 108.998 51.4698 103.923 61.5085C103.915 61.5235 103.907 61.5384 103.899 61.5531L82.2149 101.643C81.7364 102.528 80.6315 102.857 79.747 102.379C78.8625 101.9 78.5333 100.795 79.0117 99.9108L100.684 59.8431C105.287 50.7191 102.735 43.5442 98.067 41.3741C93.8339 39.4855 87.2842 40.3111 82.7071 43.6549C80.4663 45.2919 78.7956 47.4667 78.0885 50.1013Z" fill="url(#paint1_radial_12_351)"/>
<path fill-rule="evenodd" clip-rule="evenodd" d="M91.5393 15.335C98.2521 15.4126 107.058 16.8144 115.578 22.0655C123.73 27.0903 126.845 35.9746 126.95 45.1613C127.055 54.3817 124.105 63.4617 120.676 68.2931C120.094 69.1132 120.287 70.2498 121.108 70.8318C121.928 71.4138 123.064 71.2208 123.646 70.4007C127.589 64.8454 130.704 54.9822 130.591 45.1198C130.479 35.2238 127.094 24.8858 117.489 18.9654C108.25 13.2713 98.7429 11.7764 91.5815 11.6935C87.9973 11.6521 84.9835 11.9638 82.8574 12.2879C81.7935 12.4501 80.9497 12.6157 80.3653 12.7425C80.073 12.8059 79.8453 12.8597 79.6873 12.8986C79.6082 12.918 79.5465 12.9337 79.5029 12.9451C79.498 12.9463 79.4933 12.9476 79.4888 12.9487C68.4527 15.2275 59.8697 21.3693 54.8362 28.6173C49.8258 35.8318 48.1913 44.4066 51.6758 51.298C51.6817 51.3098 51.6878 51.3214 51.694 51.333L78.5099 101.634C78.983 102.521 80.0858 102.857 80.9732 102.384C81.8606 101.911 82.1965 100.808 81.7234 99.9205L54.9171 49.6378C52.2416 44.3268 53.3022 37.2104 57.8273 30.6946C62.3262 24.2164 70.1126 18.5909 80.272 16.5055C80.3095 16.4978 80.3466 16.489 80.3835 16.479C80.3836 16.4789 80.3836 16.4789 80.3836 16.4789C80.3837 16.4789 80.3838 16.4789 80.3839 16.4788C80.3841 16.4788 80.3842 16.4788 80.3843 16.4787C80.3847 16.4786 80.3851 16.4785 80.3854 16.4784L80.3884 16.4777C80.3939 16.4762 80.4039 16.4735 80.4183 16.4698C80.4471 16.4623 80.4935 16.4505 80.557 16.4348C80.684 16.4036 80.8791 16.3574 81.1375 16.3013C81.6543 16.1892 82.4234 16.0378 83.4061 15.888C85.3729 15.5882 88.1864 15.2962 91.5393 15.335Z" fill="url(#paint2_radial_12_351)"/>
<path fill-rule="evenodd" clip-rule="evenodd" d="M125.38 63.7921C126.254 64.29 126.559 65.4018 126.061 66.2756L92.9548 124.377C92.457 125.25 91.3451 125.555 90.4713 125.057C89.5976 124.559 89.2929 123.448 89.7907 122.574L122.897 64.4727C123.395 63.599 124.507 63.2942 125.38 63.7921Z" fill="url(#paint3_radial_12_351)"/>
<defs>
<radialGradient id="paint0_radial_12_351" cx="0" cy="0" r="1" gradientUnits="userSpaceOnUse" gradientTransform="translate(68.5295 62.8912) rotate(-90) scale(59.4254 66.7087)">
<stop stop-color="#B456C4"/>
<stop offset="1" stop-color="#37295D"/>
</radialGradient>
<radialGradient id="paint1_radial_12_351" cx="0" cy="0" r="1" gradientUnits="userSpaceOnUse" gradientTransform="translate(91.202 66.3043) rotate(72.3599) scale(29.7138 20.1426)">
<stop stop-color="#B456C4"/>
<stop offset="1" stop-color="#37295D"/>
</radialGradient>
<radialGradient id="paint2_radial_12_351" cx="0" cy="0" r="1" gradientUnits="userSpaceOnUse" gradientTransform="translate(86.7877 55.4568) rotate(107.64) scale(45.3379 39.9144)">
<stop stop-color="#B456C4"/>
<stop offset="1" stop-color="#37295D"/>
</radialGradient>
<radialGradient id="paint3_radial_12_351" cx="0" cy="0" r="1" gradientUnits="userSpaceOnUse" gradientTransform="translate(105.029 95.1308) rotate(33.6403) scale(0.16553 35.6842)">
<stop stop-color="#B456C4"/>
<stop offset="1" stop-color="#37295D"/>
</radialGradient>
</defs>
</svg>
