<svg width="231" height="257" viewBox="0 0 231 257" fill="none" xmlns="http://www.w3.org/2000/svg">
<path fill-rule="evenodd" clip-rule="evenodd" d="M97.6227 137.067C96.8976 137.067 96.2289 136.676 95.874 136.044L22.4535 5.23506C22.1052 4.61451 22.1121 3.85578 22.4716 3.24166C22.8312 2.62754 23.4894 2.25015 24.2011 2.25015L171.042 2.25015C172.149 2.25015 173.046 3.14739 173.046 4.25418C173.046 5.36098 172.149 6.25822 171.042 6.25822L27.624 6.25822L97.6194 130.965L109.467 109.804C110.008 108.838 111.229 108.493 112.195 109.034C113.161 109.575 113.505 110.796 112.964 111.762L99.3702 136.042C99.016 136.675 98.3477 137.067 97.6227 137.067Z" fill="url(#paint0_radial_142_66)"/>
<path fill-rule="evenodd" clip-rule="evenodd" d="M108.142 55.5818C107.368 58.4672 107.587 62.0626 109.606 66.3843C110.075 67.3871 109.641 68.5797 108.639 69.0481C107.636 69.5166 106.443 69.0834 105.975 68.0806C103.63 63.0602 103.211 58.4938 104.271 54.5429C105.328 50.6061 107.797 47.4889 110.861 45.2504C116.88 40.8533 125.612 39.5625 131.78 42.3235C131.788 42.327 131.796 42.3305 131.803 42.3341C139.929 46.0961 142.162 57.0881 136.576 68.1367C136.567 68.1532 136.559 68.1696 136.55 68.1859L112.684 112.31C112.157 113.283 110.941 113.645 109.967 113.119C108.994 112.592 108.632 111.376 109.158 110.403L133.011 66.3038C138.078 56.2618 135.269 48.365 130.131 45.9765C125.472 43.8979 118.263 44.8065 113.225 48.4868C110.759 50.2885 108.92 52.6822 108.142 55.5818Z" fill="url(#paint1_radial_142_66)"/>
<path fill-rule="evenodd" clip-rule="evenodd" d="M122.946 17.3175C130.335 17.403 140.027 18.9459 149.404 24.7253C158.376 30.2556 161.805 40.0338 161.92 50.1448C162.035 60.2929 158.789 70.2865 155.015 75.604C154.375 76.5066 154.587 77.7575 155.49 78.3981C156.392 79.0387 157.643 78.8262 158.284 77.9236C162.623 71.8094 166.051 60.9538 165.928 50.0992C165.804 39.2075 162.079 27.8293 151.507 21.3132C141.339 15.0463 130.875 13.4009 122.993 13.3097C119.048 13.2641 115.731 13.6072 113.391 13.9639C112.22 14.1424 111.291 14.3246 110.648 14.4642C110.326 14.534 110.076 14.5932 109.902 14.636C109.815 14.6574 109.747 14.6747 109.699 14.6872C109.694 14.6886 109.688 14.6899 109.683 14.6912C97.5369 17.1992 88.0904 23.9591 82.5504 31.9363C77.036 39.8766 75.237 49.3142 79.0721 56.899C79.0786 56.9119 79.0853 56.9247 79.0921 56.9375L108.606 112.299C109.127 113.276 110.341 113.645 111.317 113.125C112.294 112.604 112.664 111.39 112.143 110.413L82.6395 55.0717C79.6948 49.2264 80.8621 41.394 85.8425 34.2225C90.7941 27.0926 99.3639 20.901 110.545 18.6059C110.587 18.5974 110.628 18.5877 110.668 18.5766C110.668 18.5766 110.668 18.5766 110.668 18.5766C110.668 18.5766 110.669 18.5765 110.669 18.5765C110.669 18.5765 110.669 18.5764 110.669 18.5764C110.669 18.5763 110.67 18.5762 110.67 18.5761L110.674 18.5752C110.68 18.5736 110.691 18.5707 110.706 18.5666C110.738 18.5583 110.789 18.5453 110.859 18.5281C110.999 18.4937 111.214 18.4428 111.498 18.3811C112.067 18.2577 112.913 18.0911 113.995 17.9262C116.16 17.5963 119.256 17.2748 122.946 17.3175Z" fill="url(#paint2_radial_142_66)"/>
<path fill-rule="evenodd" clip-rule="evenodd" d="M160.192 70.6501C161.154 71.1981 161.489 72.4218 160.941 73.3835L124.504 137.33C123.956 138.292 122.732 138.627 121.771 138.079C120.809 137.532 120.474 136.308 121.022 135.346L157.459 71.3992C158.007 70.4375 159.23 70.1022 160.192 70.6501Z" fill="url(#paint3_radial_142_66)"/>
<path fill-rule="evenodd" clip-rule="evenodd" d="M97.6227 137.067C96.8976 137.067 96.2289 136.676 95.874 136.044L22.4535 5.23506C22.1052 4.61451 22.1121 3.85578 22.4716 3.24166C22.8312 2.62754 23.4894 2.25015 24.2011 2.25015L171.042 2.25015C172.149 2.25015 173.046 3.14739 173.046 4.25418C173.046 5.36098 172.149 6.25822 171.042 6.25822L27.624 6.25822L97.6194 130.965L109.467 109.804C110.008 108.838 111.229 108.493 112.195 109.034C113.161 109.575 113.505 110.796 112.964 111.762L99.3702 136.042C99.016 136.675 98.3477 137.067 97.6227 137.067Z" fill="url(#paint4_radial_142_66)"/>
<path fill-rule="evenodd" clip-rule="evenodd" d="M108.142 55.5818C107.368 58.4672 107.587 62.0626 109.606 66.3843C110.075 67.3871 109.641 68.5797 108.639 69.0481C107.636 69.5166 106.443 69.0834 105.975 68.0806C103.63 63.0602 103.211 58.4938 104.271 54.5429C105.328 50.6061 107.797 47.4889 110.861 45.2504C116.88 40.8533 125.612 39.5625 131.78 42.3235C131.788 42.327 131.796 42.3305 131.803 42.3341C139.929 46.0961 142.162 57.0881 136.576 68.1367C136.567 68.1532 136.559 68.1696 136.55 68.1859L112.684 112.31C112.157 113.283 110.941 113.645 109.967 113.119C108.994 112.592 108.632 111.376 109.158 110.403L133.011 66.3038C138.078 56.2618 135.269 48.365 130.131 45.9765C125.472 43.8979 118.263 44.8065 113.225 48.4868C110.759 50.2885 108.92 52.6822 108.142 55.5818Z" fill="url(#paint5_radial_142_66)"/>
<path fill-rule="evenodd" clip-rule="evenodd" d="M122.946 17.3175C130.335 17.403 140.027 18.9459 149.404 24.7253C158.376 30.2556 161.805 40.0338 161.92 50.1448C162.035 60.2929 158.789 70.2865 155.015 75.604C154.375 76.5066 154.587 77.7575 155.49 78.3981C156.392 79.0387 157.643 78.8262 158.284 77.9236C162.623 71.8094 166.051 60.9538 165.928 50.0992C165.804 39.2075 162.079 27.8293 151.507 21.3132C141.339 15.0463 130.875 13.4009 122.993 13.3097C119.048 13.2641 115.731 13.6072 113.391 13.9639C112.22 14.1424 111.291 14.3246 110.648 14.4642C110.326 14.534 110.076 14.5932 109.902 14.636C109.815 14.6574 109.747 14.6747 109.699 14.6872C109.694 14.6886 109.688 14.6899 109.683 14.6912C97.5369 17.1992 88.0904 23.9591 82.5504 31.9363C77.036 39.8766 75.237 49.3142 79.0721 56.899C79.0786 56.9119 79.0853 56.9247 79.0921 56.9375L108.606 112.299C109.127 113.276 110.341 113.645 111.317 113.125C112.294 112.604 112.664 111.39 112.143 110.413L82.6395 55.0717C79.6948 49.2264 80.8621 41.394 85.8425 34.2225C90.7941 27.0926 99.3639 20.901 110.545 18.6059C110.587 18.5974 110.628 18.5877 110.668 18.5766C110.668 18.5766 110.668 18.5766 110.668 18.5766C110.668 18.5766 110.669 18.5765 110.669 18.5765C110.669 18.5765 110.669 18.5764 110.669 18.5764C110.669 18.5763 110.67 18.5762 110.67 18.5761L110.674 18.5752C110.68 18.5736 110.691 18.5707 110.706 18.5666C110.738 18.5583 110.789 18.5453 110.859 18.5281C110.999 18.4937 111.214 18.4428 111.498 18.3811C112.067 18.2577 112.913 18.0911 113.995 17.9262C116.16 17.5963 119.256 17.2748 122.946 17.3175Z" fill="url(#paint6_radial_142_66)"/>
<path fill-rule="evenodd" clip-rule="evenodd" d="M160.192 70.6501C161.154 71.1981 161.489 72.4218 160.941 73.3835L124.504 137.33C123.956 138.292 122.732 138.627 121.771 138.079C120.809 137.532 120.474 136.308 121.022 135.346L157.459 71.3992C158.007 70.4375 159.23 70.1022 160.192 70.6501Z" fill="url(#paint7_radial_142_66)"/>
<path d="M201.261 201.109C200.559 201.109 200.019 200.808 199.642 200.205C199.266 199.603 199.228 198.963 199.529 198.285L210.11 173.019C210.487 172.14 211.102 171.701 211.955 171.701C212.859 171.701 213.474 172.14 213.8 173.019L224.419 198.36C224.695 199.063 224.645 199.703 224.268 200.281C223.917 200.833 223.377 201.109 222.649 201.109C222.273 201.109 221.909 201.009 221.557 200.808C221.231 200.582 220.992 200.281 220.842 199.904L211.503 176.709H212.558L203.069 199.904C202.893 200.306 202.63 200.607 202.278 200.808C201.952 201.009 201.613 201.109 201.261 201.109ZM203.257 194.632L204.763 191.394H219.524L221.03 194.632H203.257Z" fill="#302460"/>
<path d="M180.19 201.109C179.638 201.109 179.173 200.921 178.797 200.544C178.445 200.168 178.27 199.703 178.27 199.151V173.659C178.27 173.107 178.458 172.642 178.834 172.266C179.211 171.889 179.663 171.701 180.19 171.701C180.742 171.701 181.207 171.889 181.583 172.266C181.96 172.642 182.148 173.107 182.148 173.659V197.193H195.779C196.331 197.193 196.795 197.381 197.172 197.758C197.549 198.134 197.737 198.599 197.737 199.151C197.737 199.703 197.549 200.168 197.172 200.544C196.795 200.921 196.331 201.109 195.779 201.109H180.19Z" fill="#302460"/>
<path d="M153.862 201.109C153.31 201.109 152.846 200.921 152.469 200.544C152.093 200.168 151.904 199.703 151.904 199.151V173.659C151.904 173.082 152.093 172.617 152.469 172.266C152.846 171.889 153.31 171.701 153.862 171.701H170.882C171.459 171.701 171.924 171.877 172.275 172.228C172.627 172.555 172.802 172.994 172.802 173.546C172.802 174.073 172.627 174.5 172.275 174.826C171.924 175.153 171.459 175.316 170.882 175.316H155.82V184.466H166.627C167.204 184.466 167.669 184.642 168.02 184.993C168.372 185.319 168.547 185.746 168.547 186.273C168.547 186.8 168.372 187.24 168.02 187.591C167.669 187.917 167.204 188.081 166.627 188.081H155.82V197.494H170.882C171.459 197.494 171.924 197.657 172.275 197.984C172.627 198.31 172.802 198.737 172.802 199.264C172.802 199.816 172.627 200.268 172.275 200.62C171.924 200.946 171.459 201.109 170.882 201.109H153.862Z" fill="#302460"/>
<path d="M124.261 201.109C123.558 201.109 123.018 200.808 122.642 200.205C122.265 199.603 122.228 198.963 122.529 198.285L133.11 173.019C133.486 172.14 134.101 171.701 134.955 171.701C135.859 171.701 136.474 172.14 136.8 173.019L147.418 198.36C147.695 199.063 147.644 199.703 147.268 200.281C146.916 200.833 146.377 201.109 145.649 201.109C145.272 201.109 144.908 201.009 144.557 200.808C144.23 200.582 143.992 200.281 143.841 199.904L134.503 176.709H135.557L126.068 199.904C125.893 200.306 125.629 200.607 125.278 200.808C124.951 201.009 124.612 201.109 124.261 201.109ZM126.257 194.632L127.763 191.394H142.523L144.03 194.632H126.257Z" fill="#302460"/>
<path d="M94.5862 201.109C94.0339 201.109 93.5695 200.921 93.193 200.544C92.8164 200.168 92.6282 199.703 92.6282 199.151V173.659C92.6282 173.082 92.8164 172.617 93.193 172.266C93.5695 171.889 94.0339 171.701 94.5862 171.701C95.1636 171.701 95.628 171.889 95.9794 172.266C96.3559 172.617 96.5442 173.082 96.5442 173.659V184.466H114.016V173.659C114.016 173.082 114.204 172.617 114.581 172.266C114.957 171.889 115.422 171.701 115.974 171.701C116.551 171.701 117.016 171.889 117.367 172.266C117.718 172.617 117.894 173.082 117.894 173.659V199.151C117.894 199.703 117.718 200.168 117.367 200.544C117.016 200.921 116.551 201.109 115.974 201.109C115.422 201.109 114.957 200.921 114.581 200.544C114.204 200.168 114.016 199.703 114.016 199.151V187.93H96.5442V199.151C96.5442 199.703 96.3559 200.168 95.9794 200.544C95.628 200.921 95.1636 201.109 94.5862 201.109Z" fill="#302460"/>
<path d="M76.5369 201.486C74.5035 201.486 72.5957 201.109 70.8134 200.356C69.0562 199.578 67.5124 198.511 66.1819 197.155C64.8766 195.775 63.8474 194.168 63.0943 192.336C62.3663 190.503 62.0023 188.52 62.0023 186.386C62.0023 184.278 62.3663 182.32 63.0943 180.512C63.8474 178.68 64.8766 177.086 66.1819 175.73C67.5124 174.349 69.0562 173.27 70.8134 172.492C72.5706 171.714 74.4784 171.324 76.5369 171.324C78.4698 171.324 80.1266 171.575 81.5073 172.078C82.913 172.58 84.3188 173.408 85.7245 174.563C85.9254 174.713 86.076 174.877 86.1764 175.052C86.3019 175.203 86.3772 175.366 86.4023 175.542C86.4525 175.692 86.4776 175.881 86.4776 176.107C86.4776 176.584 86.3019 176.985 85.9505 177.311C85.6241 177.613 85.2225 177.788 84.7455 177.839C84.2686 177.864 83.8042 177.701 83.3523 177.349C82.4235 176.546 81.457 175.931 80.4529 175.504C79.4739 175.077 78.1686 174.864 76.5369 174.864C75.0558 174.864 73.6626 175.165 72.3573 175.768C71.0519 176.37 69.8972 177.199 68.8931 178.253C67.914 179.307 67.1484 180.537 66.5961 181.943C66.0439 183.324 65.7677 184.805 65.7677 186.386C65.7677 187.993 66.0439 189.499 66.5961 190.905C67.1484 192.285 67.914 193.503 68.8931 194.557C69.8972 195.611 71.0519 196.44 72.3573 197.042C73.6626 197.62 75.0558 197.908 76.5369 197.908C77.8171 197.908 79.0221 197.695 80.1517 197.268C81.3064 196.816 82.411 196.201 83.4653 195.423C83.9171 195.097 84.3564 194.959 84.7832 195.009C85.235 195.034 85.6116 195.21 85.9128 195.536C86.214 195.837 86.3647 196.264 86.3647 196.816C86.3647 197.067 86.3144 197.318 86.214 197.57C86.1136 197.795 85.963 198.009 85.7622 198.21C84.4066 199.289 82.9507 200.105 81.3943 200.657C79.863 201.209 78.2439 201.486 76.5369 201.486Z" fill="#302460"/>
<path d="M38.9505 201.109C38.3982 201.109 37.9338 200.921 37.5572 200.544C37.1807 200.168 36.9924 199.703 36.9924 199.151V173.659C36.9924 173.082 37.1807 172.617 37.5572 172.266C37.9338 171.889 38.3982 171.701 38.9505 171.701H55.9702C56.5476 171.701 57.012 171.877 57.3634 172.228C57.7148 172.555 57.8906 172.994 57.8906 173.546C57.8906 174.073 57.7148 174.5 57.3634 174.826C57.012 175.153 56.5476 175.316 55.9702 175.316H40.9085V184.466H51.7153C52.2926 184.466 52.757 184.642 53.1085 184.993C53.4599 185.319 53.6356 185.746 53.6356 186.273C53.6356 186.8 53.4599 187.24 53.1085 187.591C52.757 187.917 52.2926 188.081 51.7153 188.081H40.9085V197.494H55.9702C56.5476 197.494 57.012 197.657 57.3634 197.984C57.7148 198.31 57.8906 198.737 57.8906 199.264C57.8906 199.816 57.7148 200.268 57.3634 200.62C57.012 200.946 56.5476 201.109 55.9702 201.109H38.9505Z" fill="#302460"/>
<path d="M1.95802 201.109C1.40576 201.109 0.941358 200.921 0.564815 200.544C0.188272 200.168 0 199.703 0 199.151V173.659C0 173.082 0.188272 172.617 0.564815 172.266C0.941358 171.889 1.40576 171.701 1.95802 171.701C2.71111 171.701 3.28848 172.052 3.69012 172.755L15.4759 196.365H14.271L25.7555 172.755C26.1572 172.052 26.7346 171.701 27.4876 171.701C28.0399 171.701 28.5043 171.889 28.8809 172.266C29.2574 172.617 29.4457 173.082 29.4457 173.659V199.151C29.4457 199.703 29.2448 200.168 28.8432 200.544C28.4667 200.921 28.0148 201.109 27.4876 201.109C26.9354 201.109 26.471 200.921 26.0944 200.544C25.7179 200.168 25.5296 199.703 25.5296 199.151V179.081L26.2827 178.893L16.4173 199C15.9905 199.653 15.4257 199.979 14.7228 199.979C13.8944 199.979 13.292 199.59 12.9154 198.812L3.16296 179.27L3.91605 179.081V199.151C3.91605 199.703 3.72778 200.168 3.35123 200.544C2.97469 200.921 2.51029 201.109 1.95802 201.109Z" fill="#302460"/>
<path d="M223.958 247.476C224.163 247.44 224.382 247.409 224.614 247.382C224.855 247.346 225.092 247.319 225.324 247.302C225.565 247.284 225.797 247.27 226.02 247.261C226.243 247.253 226.448 247.248 226.636 247.248C227.073 247.248 227.501 247.288 227.921 247.369C228.349 247.449 228.729 247.587 229.059 247.784C229.398 247.98 229.666 248.252 229.862 248.6C230.067 248.939 230.17 249.368 230.17 249.886C230.17 250.653 229.992 251.278 229.635 251.76C229.278 252.242 228.8 252.577 228.202 252.764L228.858 253.179L231 256.754H228.885L226.756 253.085L225.792 252.911V256.754H223.958V247.476ZM226.77 248.881C226.582 248.881 226.395 248.886 226.207 248.895C226.029 248.904 225.89 248.922 225.792 248.948V251.666H226.569C227.077 251.666 227.484 251.55 227.787 251.318C228.091 251.086 228.242 250.702 228.242 250.167C228.242 249.765 228.117 249.453 227.867 249.23C227.617 248.997 227.252 248.881 226.77 248.881Z" fill="#8C58CF"/>
<path d="M205.851 247.382H211.407V249.015H207.685V251.198H211.072V252.831H207.685V255.12H211.474V256.754H205.851V247.382Z" fill="#8C58CF"/>
<path d="M187.077 247.476C187.452 247.404 187.862 247.351 188.309 247.315C188.764 247.27 189.215 247.248 189.661 247.248C190.125 247.248 190.589 247.288 191.053 247.369C191.526 247.44 191.95 247.592 192.325 247.824C192.7 248.047 193.004 248.364 193.236 248.774C193.477 249.176 193.597 249.703 193.597 250.354C193.597 250.943 193.494 251.443 193.289 251.854C193.084 252.255 192.812 252.586 192.472 252.844C192.133 253.103 191.745 253.291 191.308 253.407C190.879 253.523 190.433 253.581 189.969 253.581C189.924 253.581 189.853 253.581 189.755 253.581C189.656 253.581 189.554 253.581 189.447 253.581C189.34 253.572 189.233 253.563 189.125 253.554C189.027 253.545 188.956 253.536 188.911 253.527V256.754H187.077V247.476ZM189.808 248.828C189.63 248.828 189.46 248.837 189.299 248.855C189.139 248.864 189.009 248.877 188.911 248.895V251.934C188.947 251.943 189 251.952 189.072 251.961C189.143 251.97 189.219 251.979 189.299 251.988C189.38 251.988 189.456 251.988 189.527 251.988C189.607 251.988 189.665 251.988 189.701 251.988C189.942 251.988 190.179 251.965 190.411 251.921C190.652 251.876 190.866 251.796 191.053 251.68C191.241 251.555 191.388 251.385 191.495 251.171C191.611 250.957 191.669 250.675 191.669 250.327C191.669 250.033 191.616 249.792 191.509 249.604C191.401 249.408 191.259 249.252 191.08 249.136C190.911 249.02 190.714 248.939 190.491 248.895C190.268 248.85 190.04 248.828 189.808 248.828Z" fill="#8C58CF"/>
<path d="M166.701 252.068C166.701 250.506 167.045 249.305 167.732 248.466C168.42 247.618 169.401 247.195 170.678 247.195C171.347 247.195 171.932 247.311 172.432 247.543C172.931 247.775 173.346 248.105 173.677 248.533C174.007 248.962 174.252 249.475 174.413 250.073C174.574 250.671 174.654 251.336 174.654 252.068C174.654 253.63 174.306 254.835 173.61 255.683C172.922 256.522 171.945 256.941 170.678 256.941C169.999 256.941 169.41 256.825 168.91 256.593C168.411 256.361 167.996 256.031 167.665 255.602C167.344 255.174 167.103 254.661 166.942 254.063C166.782 253.465 166.701 252.8 166.701 252.068ZM168.629 252.068C168.629 252.541 168.669 252.978 168.75 253.38C168.83 253.773 168.951 254.112 169.111 254.397C169.281 254.683 169.495 254.906 169.754 255.067C170.013 255.227 170.321 255.308 170.678 255.308C171.329 255.308 171.834 255.053 172.191 254.545C172.548 254.036 172.726 253.21 172.726 252.068C172.726 251.613 172.686 251.189 172.606 250.796C172.534 250.403 172.418 250.06 172.258 249.765C172.097 249.471 171.887 249.243 171.628 249.082C171.369 248.913 171.053 248.828 170.678 248.828C170.026 248.828 169.522 249.091 169.165 249.618C168.808 250.135 168.629 250.952 168.629 252.068Z" fill="#8C58CF"/>
<path d="M156.179 256.754H150.248V247.382H152.083V255.12H156.179V256.754Z" fill="#8C58CF"/>
<path d="M132.141 247.382H137.697V249.015H133.976V251.198H137.363V252.831H133.976V255.12H137.764V256.754H132.141V247.382Z" fill="#8C58CF"/>
<path d="M116.055 252.885L116.296 254.478H116.363L116.63 252.871L118.424 247.382H120.352L116.871 256.821H115.559L112.052 247.382H114.18L116.055 252.885Z" fill="#8C58CF"/>
<path d="M94.8683 247.382H100.424V249.015H96.7025V251.198H100.09V252.831H96.7025V255.12H100.491V256.754H94.8683V247.382Z" fill="#8C58CF"/>
<path d="M75.0879 247.382C75.2753 247.355 75.4851 247.333 75.7171 247.315C75.9581 247.297 76.2036 247.284 76.4535 247.275C76.7034 247.266 76.9444 247.261 77.1765 247.261C77.4174 247.253 77.6316 247.248 77.8191 247.248C78.6492 247.248 79.3587 247.364 79.9478 247.596C80.5369 247.828 81.0144 248.154 81.3803 248.574C81.7463 248.993 82.0141 249.493 82.1836 250.073C82.3532 250.653 82.438 251.291 82.438 251.988C82.438 252.621 82.3577 253.233 82.197 253.822C82.0364 254.411 81.7686 254.933 81.3937 255.388C81.0189 255.843 80.5235 256.209 79.9076 256.486C79.3007 256.763 78.5465 256.901 77.645 256.901C77.5022 256.901 77.3103 256.897 77.0693 256.888C76.8373 256.879 76.5918 256.865 76.333 256.847C76.0831 256.839 75.8421 256.825 75.61 256.807C75.378 256.798 75.2039 256.785 75.0879 256.767V247.382ZM77.9664 248.881C77.77 248.881 77.5692 248.886 77.3639 248.895C77.1675 248.904 77.0203 248.917 76.9221 248.935V255.214C76.9578 255.223 77.0158 255.232 77.0961 255.241C77.1854 255.241 77.2791 255.245 77.3773 255.254C77.4755 255.254 77.5692 255.259 77.6584 255.268C77.7477 255.268 77.8146 255.268 77.8593 255.268C78.3769 255.268 78.8053 255.178 79.1445 255C79.4926 254.812 79.7648 254.567 79.9612 254.264C80.1665 253.96 80.3093 253.612 80.3896 253.219C80.4699 252.818 80.5101 252.407 80.5101 251.988C80.5101 251.622 80.4744 251.256 80.403 250.89C80.3316 250.515 80.1977 250.18 80.0014 249.886C79.8139 249.591 79.5551 249.35 79.2248 249.163C78.8946 248.975 78.4751 248.881 77.9664 248.881Z" fill="#8C58CF"/>
<path d="M47.8731 249.564C47.8731 249.796 47.8419 250.028 47.7794 250.26C47.7258 250.492 47.6321 250.707 47.4982 250.903C47.3644 251.091 47.1903 251.26 46.9761 251.412C46.7619 251.555 46.503 251.662 46.1996 251.733V251.813C46.4673 251.858 46.7217 251.934 46.9627 252.041C47.2037 252.148 47.4134 252.295 47.5919 252.483C47.7705 252.67 47.9088 252.898 48.007 253.166C48.1141 253.433 48.1676 253.75 48.1676 254.116C48.1676 254.598 48.065 255.018 47.8597 255.375C47.6544 255.723 47.3777 256.008 47.0296 256.232C46.6905 256.455 46.3022 256.62 45.8649 256.727C45.4275 256.834 44.9768 256.888 44.5127 256.888C44.3609 256.888 44.1646 256.888 43.9236 256.888C43.6915 256.888 43.4371 256.879 43.1605 256.861C42.8927 256.852 42.616 256.834 42.3304 256.807C42.0537 256.78 41.7993 256.74 41.5673 256.687V247.449C41.7368 247.422 41.9287 247.395 42.143 247.369C42.3661 247.342 42.6026 247.319 42.8525 247.302C43.1024 247.284 43.3568 247.27 43.6157 247.261C43.8834 247.253 44.1467 247.248 44.4056 247.248C44.8429 247.248 45.2669 247.284 45.6774 247.355C46.0969 247.418 46.4673 247.534 46.7887 247.703C47.1189 247.873 47.3822 248.109 47.5786 248.413C47.7749 248.716 47.8731 249.1 47.8731 249.564ZM44.5261 255.375C44.7492 255.375 44.9634 255.348 45.1687 255.294C45.3829 255.241 45.5703 255.161 45.731 255.053C45.8916 254.937 46.0211 254.795 46.1192 254.625C46.2174 254.455 46.2665 254.255 46.2665 254.023C46.2665 253.728 46.2085 253.496 46.0925 253.326C45.9764 253.157 45.8247 253.027 45.6373 252.938C45.4498 252.84 45.2401 252.777 45.008 252.751C44.776 252.724 44.5439 252.71 44.3118 252.71H43.3345V255.294C43.3791 255.312 43.4505 255.326 43.5487 255.335C43.6469 255.343 43.7495 255.352 43.8566 255.361C43.9727 255.361 44.0887 255.366 44.2047 255.375C44.3297 255.375 44.4368 255.375 44.5261 255.375ZM43.9236 251.318C44.0485 251.318 44.1913 251.314 44.352 251.305C44.5216 251.296 44.6599 251.282 44.767 251.265C45.1062 251.157 45.3963 250.997 45.6373 250.783C45.8872 250.568 46.0121 250.287 46.0121 249.939C46.0121 249.707 45.9675 249.515 45.8783 249.363C45.789 249.212 45.6685 249.091 45.5168 249.002C45.374 248.913 45.2089 248.85 45.0214 248.815C44.834 248.779 44.6376 248.761 44.4323 248.761C44.2003 248.761 43.9861 248.765 43.7897 248.774C43.5933 248.783 43.4416 248.797 43.3345 248.815V251.318H43.9236Z" fill="#8C58CF"/>
<path d="M23.4603 247.382H29.0164V249.015H25.2944V251.198H28.6817V252.831H25.2944V255.12H29.0833V256.754H23.4603V247.382Z" fill="#8C58CF"/>
<path d="M3.23994 252.617L3.41399 254.277H3.46754L3.65498 252.59L5.28834 247.382H6.49328L8.09986 252.617L8.28729 254.277H8.34085L8.54167 252.59L9.67967 247.382H11.5406L8.9567 256.821H7.72499L6.05146 251.613L5.82387 250.18H5.75692L5.52933 251.626L3.86919 256.821H2.57053L0 247.382H1.99484L3.23994 252.617Z" fill="#8C58CF"/>
<path d="M102.535 235.835C102.022 235.835 101.653 235.623 101.43 235.199C101.207 234.775 101.185 234.362 101.363 233.96L111.204 210.598C111.449 209.995 111.873 209.694 112.476 209.694C113.056 209.694 113.469 209.995 113.714 210.598L123.588 233.994C123.789 234.418 123.755 234.831 123.487 235.232C123.242 235.634 122.885 235.835 122.416 235.835C122.149 235.835 121.903 235.768 121.68 235.634C121.479 235.5 121.312 235.299 121.178 235.031L111.974 212.707H113.011L103.74 235.031C103.628 235.299 103.461 235.5 103.238 235.634C103.037 235.768 102.803 235.835 102.535 235.835ZM104.744 229.609L105.748 227.367H119.337L120.341 229.609H104.744Z" fill="#4D3C93"/>
<path d="M77.6598 235.835C77.2805 235.835 76.9681 235.712 76.7227 235.466C76.4772 235.221 76.3545 234.909 76.3545 234.529V211C76.3545 210.62 76.4772 210.308 76.7227 210.062C76.9681 209.817 77.2805 209.694 77.6598 209.694C78.0615 209.694 78.3962 209.85 78.664 210.163L94.6628 231.182V211C94.6628 210.62 94.7856 210.308 95.031 210.062C95.2765 209.817 95.5889 209.694 95.9682 209.694C96.3252 209.694 96.6265 209.817 96.8719 210.062C97.1397 210.308 97.2735 210.62 97.2735 211V234.529C97.2735 234.909 97.1397 235.221 96.8719 235.466C96.6265 235.712 96.3252 235.835 95.9682 235.835C95.7897 235.835 95.6112 235.801 95.4327 235.734C95.2542 235.667 95.1091 235.556 94.9976 235.4L78.9652 214.38V234.529C78.9652 234.909 78.8313 235.221 78.5635 235.466C78.3181 235.712 78.0169 235.835 77.6598 235.835Z" fill="#4D3C93"/>
<path d="M59.3403 236.37C57.3098 236.37 55.5023 235.98 53.9181 235.199C52.3561 234.418 51.1289 233.336 50.2363 231.952C49.3661 230.569 48.931 228.984 48.931 227.199V211C48.931 210.62 49.0537 210.308 49.2991 210.062C49.5446 209.817 49.857 209.694 50.2363 209.694C50.6156 209.694 50.928 209.817 51.1735 210.062C51.4189 210.308 51.5417 210.62 51.5417 211V227.199C51.5417 228.516 51.8652 229.676 52.5123 230.68C53.1817 231.684 54.1077 232.476 55.2904 233.057C56.473 233.614 57.823 233.893 59.3403 233.893C60.8353 233.893 62.163 233.614 63.3233 233.057C64.4836 232.476 65.3873 231.684 66.0344 230.68C66.7038 229.676 67.0385 228.516 67.0385 227.199V211C67.0385 210.62 67.1612 210.308 67.4067 210.062C67.6521 209.817 67.9645 209.694 68.3438 209.694C68.7455 209.694 69.0579 209.817 69.281 210.062C69.5265 210.308 69.6492 210.62 69.6492 211V227.199C69.6492 228.984 69.2029 230.569 68.3104 231.952C67.4402 233.336 66.2241 234.418 64.6621 235.199C63.1225 235.98 61.3485 236.37 59.3403 236.37Z" fill="#4D3C93"/>
<path d="M27.0619 235.835C26.6826 235.835 26.3702 235.712 26.1248 235.466C25.8793 235.221 25.7566 234.909 25.7566 234.529V211C25.7566 210.62 25.8793 210.308 26.1248 210.062C26.3702 209.817 26.6826 209.694 27.0619 209.694H42.7596C43.1166 209.694 43.4179 209.817 43.6633 210.062C43.9311 210.286 44.065 210.587 44.065 210.966C44.065 211.301 43.9311 211.591 43.6633 211.836C43.4179 212.082 43.1166 212.205 42.7596 212.205H28.3673V221.442H38.8436C39.2229 221.442 39.5353 221.565 39.7807 221.811C40.0262 222.056 40.1489 222.357 40.1489 222.714C40.1489 223.071 40.0262 223.372 39.7807 223.618C39.5353 223.863 39.2229 223.986 38.8436 223.986H28.3673V233.324H42.7596C43.1166 233.324 43.4179 233.447 43.6633 233.693C43.9311 233.938 44.065 234.228 44.065 234.563C44.065 234.942 43.9311 235.255 43.6633 235.5C43.4179 235.723 43.1166 235.835 42.7596 235.835H27.0619Z" fill="#4D3C93"/>
<path d="M1.30535 235.835C0.926017 235.835 0.613626 235.712 0.368176 235.466C0.122725 235.221 0 234.909 0 234.529V211C0 210.62 0.122725 210.308 0.368176 210.062C0.613626 209.817 0.926017 209.694 1.30535 209.694H7.33004C9.24901 209.694 11.0006 210.018 12.5849 210.665C14.1915 211.29 15.5749 212.193 16.7352 213.376C17.8956 214.536 18.7881 215.909 19.4129 217.493C20.06 219.077 20.3835 220.829 20.3835 222.748C20.3835 224.667 20.06 226.429 19.4129 228.036C18.7881 229.62 17.8956 231.004 16.7352 232.186C15.5749 233.347 14.1915 234.25 12.5849 234.897C11.0006 235.522 9.24901 235.835 7.33004 235.835H1.30535ZM2.6107 233.492H7.33004C9.38289 233.492 11.1903 233.034 12.7523 232.119C14.3365 231.182 15.5749 229.91 16.4675 228.304C17.36 226.675 17.8063 224.823 17.8063 222.748C17.8063 220.673 17.36 218.832 16.4675 217.225C15.5749 215.596 14.3365 214.324 12.7523 213.409C11.1903 212.495 9.38289 212.037 7.33004 212.037H2.6107V233.492Z" fill="#4D3C93"/>
<path d="M201.261 201.109C200.559 201.109 200.019 200.808 199.642 200.205C199.266 199.603 199.228 198.963 199.529 198.285L210.11 173.019C210.487 172.14 211.102 171.701 211.955 171.701C212.859 171.701 213.474 172.14 213.8 173.019L224.419 198.36C224.695 199.063 224.645 199.703 224.268 200.281C223.917 200.833 223.377 201.109 222.649 201.109C222.273 201.109 221.909 201.009 221.557 200.808C221.231 200.582 220.992 200.281 220.842 199.904L211.503 176.709H212.558L203.069 199.904C202.893 200.306 202.63 200.607 202.278 200.808C201.952 201.009 201.613 201.109 201.261 201.109ZM203.257 194.632L204.763 191.394H219.524L221.03 194.632H203.257Z" fill="#302460"/>
<path d="M180.19 201.109C179.638 201.109 179.173 200.921 178.797 200.544C178.445 200.168 178.27 199.703 178.27 199.151V173.659C178.27 173.107 178.458 172.642 178.834 172.266C179.211 171.889 179.663 171.701 180.19 171.701C180.742 171.701 181.207 171.889 181.583 172.266C181.96 172.642 182.148 173.107 182.148 173.659V197.193H195.779C196.331 197.193 196.795 197.381 197.172 197.758C197.549 198.134 197.737 198.599 197.737 199.151C197.737 199.703 197.549 200.168 197.172 200.544C196.795 200.921 196.331 201.109 195.779 201.109H180.19Z" fill="#302460"/>
<path d="M153.862 201.109C153.31 201.109 152.846 200.921 152.469 200.544C152.093 200.168 151.904 199.703 151.904 199.151V173.659C151.904 173.082 152.093 172.617 152.469 172.266C152.846 171.889 153.31 171.701 153.862 171.701H170.882C171.459 171.701 171.924 171.877 172.275 172.228C172.627 172.555 172.802 172.994 172.802 173.546C172.802 174.073 172.627 174.5 172.275 174.826C171.924 175.153 171.459 175.316 170.882 175.316H155.82V184.466H166.627C167.204 184.466 167.669 184.642 168.02 184.993C168.372 185.319 168.547 185.746 168.547 186.273C168.547 186.8 168.372 187.24 168.02 187.591C167.669 187.917 167.204 188.081 166.627 188.081H155.82V197.494H170.882C171.459 197.494 171.924 197.657 172.275 197.984C172.627 198.31 172.802 198.737 172.802 199.264C172.802 199.816 172.627 200.268 172.275 200.62C171.924 200.946 171.459 201.109 170.882 201.109H153.862Z" fill="#302460"/>
<path d="M124.261 201.109C123.558 201.109 123.018 200.808 122.642 200.205C122.265 199.603 122.228 198.963 122.529 198.285L133.11 173.019C133.486 172.14 134.101 171.701 134.955 171.701C135.859 171.701 136.474 172.14 136.8 173.019L147.418 198.36C147.695 199.063 147.644 199.703 147.268 200.281C146.916 200.833 146.377 201.109 145.649 201.109C145.272 201.109 144.908 201.009 144.557 200.808C144.23 200.582 143.992 200.281 143.841 199.904L134.503 176.709H135.557L126.068 199.904C125.893 200.306 125.629 200.607 125.278 200.808C124.951 201.009 124.612 201.109 124.261 201.109ZM126.257 194.632L127.763 191.394H142.523L144.03 194.632H126.257Z" fill="#302460"/>
<path d="M94.5862 201.109C94.0339 201.109 93.5695 200.921 93.193 200.544C92.8164 200.168 92.6282 199.703 92.6282 199.151V173.659C92.6282 173.082 92.8164 172.617 93.193 172.266C93.5695 171.889 94.0339 171.701 94.5862 171.701C95.1636 171.701 95.628 171.889 95.9794 172.266C96.3559 172.617 96.5442 173.082 96.5442 173.659V184.466H114.016V173.659C114.016 173.082 114.204 172.617 114.581 172.266C114.957 171.889 115.422 171.701 115.974 171.701C116.551 171.701 117.016 171.889 117.367 172.266C117.718 172.617 117.894 173.082 117.894 173.659V199.151C117.894 199.703 117.718 200.168 117.367 200.544C117.016 200.921 116.551 201.109 115.974 201.109C115.422 201.109 114.957 200.921 114.581 200.544C114.204 200.168 114.016 199.703 114.016 199.151V187.93H96.5442V199.151C96.5442 199.703 96.3559 200.168 95.9794 200.544C95.628 200.921 95.1636 201.109 94.5862 201.109Z" fill="#302460"/>
<path d="M76.5369 201.486C74.5035 201.486 72.5957 201.109 70.8134 200.356C69.0562 199.578 67.5124 198.511 66.1819 197.155C64.8766 195.775 63.8474 194.168 63.0943 192.336C62.3663 190.503 62.0023 188.52 62.0023 186.386C62.0023 184.278 62.3663 182.32 63.0943 180.512C63.8474 178.68 64.8766 177.086 66.1819 175.73C67.5124 174.349 69.0562 173.27 70.8134 172.492C72.5706 171.714 74.4784 171.324 76.5369 171.324C78.4698 171.324 80.1266 171.575 81.5073 172.078C82.913 172.58 84.3188 173.408 85.7245 174.563C85.9254 174.713 86.076 174.877 86.1764 175.052C86.3019 175.203 86.3772 175.366 86.4023 175.542C86.4525 175.692 86.4776 175.881 86.4776 176.107C86.4776 176.584 86.3019 176.985 85.9505 177.311C85.6241 177.613 85.2225 177.788 84.7455 177.839C84.2686 177.864 83.8042 177.701 83.3523 177.349C82.4235 176.546 81.457 175.931 80.4529 175.504C79.4739 175.077 78.1686 174.864 76.5369 174.864C75.0558 174.864 73.6626 175.165 72.3573 175.768C71.0519 176.37 69.8972 177.199 68.8931 178.253C67.914 179.307 67.1484 180.537 66.5961 181.943C66.0439 183.324 65.7677 184.805 65.7677 186.386C65.7677 187.993 66.0439 189.499 66.5961 190.905C67.1484 192.285 67.914 193.503 68.8931 194.557C69.8972 195.611 71.0519 196.44 72.3573 197.042C73.6626 197.62 75.0558 197.908 76.5369 197.908C77.8171 197.908 79.0221 197.695 80.1517 197.268C81.3064 196.816 82.411 196.201 83.4653 195.423C83.9171 195.097 84.3564 194.959 84.7832 195.009C85.235 195.034 85.6116 195.21 85.9128 195.536C86.214 195.837 86.3647 196.264 86.3647 196.816C86.3647 197.067 86.3144 197.318 86.214 197.57C86.1136 197.795 85.963 198.009 85.7622 198.21C84.4066 199.289 82.9507 200.105 81.3943 200.657C79.863 201.209 78.2439 201.486 76.5369 201.486Z" fill="#302460"/>
<path d="M38.9505 201.109C38.3982 201.109 37.9338 200.921 37.5572 200.544C37.1807 200.168 36.9924 199.703 36.9924 199.151V173.659C36.9924 173.082 37.1807 172.617 37.5572 172.266C37.9338 171.889 38.3982 171.701 38.9505 171.701H55.9702C56.5476 171.701 57.012 171.877 57.3634 172.228C57.7148 172.555 57.8906 172.994 57.8906 173.546C57.8906 174.073 57.7148 174.5 57.3634 174.826C57.012 175.153 56.5476 175.316 55.9702 175.316H40.9085V184.466H51.7153C52.2926 184.466 52.757 184.642 53.1085 184.993C53.4599 185.319 53.6356 185.746 53.6356 186.273C53.6356 186.8 53.4599 187.24 53.1085 187.591C52.757 187.917 52.2926 188.081 51.7153 188.081H40.9085V197.494H55.9702C56.5476 197.494 57.012 197.657 57.3634 197.984C57.7148 198.31 57.8906 198.737 57.8906 199.264C57.8906 199.816 57.7148 200.268 57.3634 200.62C57.012 200.946 56.5476 201.109 55.9702 201.109H38.9505Z" fill="#302460"/>
<path d="M1.95802 201.109C1.40576 201.109 0.941358 200.921 0.564815 200.544C0.188272 200.168 0 199.703 0 199.151V173.659C0 173.082 0.188272 172.617 0.564815 172.266C0.941358 171.889 1.40576 171.701 1.95802 171.701C2.71111 171.701 3.28848 172.052 3.69012 172.755L15.4759 196.365H14.271L25.7555 172.755C26.1572 172.052 26.7346 171.701 27.4876 171.701C28.0399 171.701 28.5043 171.889 28.8809 172.266C29.2574 172.617 29.4457 173.082 29.4457 173.659V199.151C29.4457 199.703 29.2448 200.168 28.8432 200.544C28.4667 200.921 28.0148 201.109 27.4876 201.109C26.9354 201.109 26.471 200.921 26.0944 200.544C25.7179 200.168 25.5296 199.703 25.5296 199.151V179.081L26.2827 178.893L16.4173 199C15.9905 199.653 15.4257 199.979 14.7228 199.979C13.8944 199.979 13.292 199.59 12.9154 198.812L3.16296 179.27L3.91605 179.081V199.151C3.91605 199.703 3.72778 200.168 3.35123 200.544C2.97469 200.921 2.51029 201.109 1.95802 201.109Z" fill="#302460"/>
<path d="M223.958 247.476C224.163 247.44 224.382 247.409 224.614 247.382C224.855 247.346 225.092 247.319 225.324 247.302C225.565 247.284 225.797 247.27 226.02 247.261C226.243 247.253 226.448 247.248 226.636 247.248C227.073 247.248 227.501 247.288 227.921 247.369C228.349 247.449 228.729 247.587 229.059 247.784C229.398 247.98 229.666 248.252 229.862 248.6C230.067 248.939 230.17 249.368 230.17 249.886C230.17 250.653 229.992 251.278 229.635 251.76C229.278 252.242 228.8 252.577 228.202 252.764L228.858 253.179L231 256.754H228.885L226.756 253.085L225.792 252.911V256.754H223.958V247.476ZM226.77 248.881C226.582 248.881 226.395 248.886 226.207 248.895C226.029 248.904 225.89 248.922 225.792 248.948V251.666H226.569C227.077 251.666 227.484 251.55 227.787 251.318C228.091 251.086 228.242 250.702 228.242 250.167C228.242 249.765 228.117 249.453 227.867 249.23C227.617 248.997 227.252 248.881 226.77 248.881Z" fill="#8C58CF"/>
<path d="M205.851 247.382H211.407V249.015H207.685V251.198H211.072V252.831H207.685V255.12H211.474V256.754H205.851V247.382Z" fill="#8C58CF"/>
<path d="M187.077 247.476C187.452 247.404 187.862 247.351 188.309 247.315C188.764 247.27 189.215 247.248 189.661 247.248C190.125 247.248 190.589 247.288 191.053 247.369C191.526 247.44 191.95 247.592 192.325 247.824C192.7 248.047 193.004 248.364 193.236 248.774C193.477 249.176 193.597 249.703 193.597 250.354C193.597 250.943 193.494 251.443 193.289 251.854C193.084 252.255 192.812 252.586 192.472 252.844C192.133 253.103 191.745 253.291 191.308 253.407C190.879 253.523 190.433 253.581 189.969 253.581C189.924 253.581 189.853 253.581 189.755 253.581C189.656 253.581 189.554 253.581 189.447 253.581C189.34 253.572 189.233 253.563 189.125 253.554C189.027 253.545 188.956 253.536 188.911 253.527V256.754H187.077V247.476ZM189.808 248.828C189.63 248.828 189.46 248.837 189.299 248.855C189.139 248.864 189.009 248.877 188.911 248.895V251.934C188.947 251.943 189 251.952 189.072 251.961C189.143 251.97 189.219 251.979 189.299 251.988C189.38 251.988 189.456 251.988 189.527 251.988C189.607 251.988 189.665 251.988 189.701 251.988C189.942 251.988 190.179 251.965 190.411 251.921C190.652 251.876 190.866 251.796 191.053 251.68C191.241 251.555 191.388 251.385 191.495 251.171C191.611 250.957 191.669 250.675 191.669 250.327C191.669 250.033 191.616 249.792 191.509 249.604C191.401 249.408 191.259 249.252 191.08 249.136C190.911 249.02 190.714 248.939 190.491 248.895C190.268 248.85 190.04 248.828 189.808 248.828Z" fill="#8C58CF"/>
<path d="M166.701 252.068C166.701 250.506 167.045 249.305 167.732 248.466C168.42 247.618 169.401 247.195 170.678 247.195C171.347 247.195 171.932 247.311 172.432 247.543C172.931 247.775 173.346 248.105 173.677 248.533C174.007 248.962 174.252 249.475 174.413 250.073C174.574 250.671 174.654 251.336 174.654 252.068C174.654 253.63 174.306 254.835 173.61 255.683C172.922 256.522 171.945 256.941 170.678 256.941C169.999 256.941 169.41 256.825 168.91 256.593C168.411 256.361 167.996 256.031 167.665 255.602C167.344 255.174 167.103 254.661 166.942 254.063C166.782 253.465 166.701 252.8 166.701 252.068ZM168.629 252.068C168.629 252.541 168.669 252.978 168.75 253.38C168.83 253.773 168.951 254.112 169.111 254.397C169.281 254.683 169.495 254.906 169.754 255.067C170.013 255.227 170.321 255.308 170.678 255.308C171.329 255.308 171.834 255.053 172.191 254.545C172.548 254.036 172.726 253.21 172.726 252.068C172.726 251.613 172.686 251.189 172.606 250.796C172.534 250.403 172.418 250.06 172.258 249.765C172.097 249.471 171.887 249.243 171.628 249.082C171.369 248.913 171.053 248.828 170.678 248.828C170.026 248.828 169.522 249.091 169.165 249.618C168.808 250.135 168.629 250.952 168.629 252.068Z" fill="#8C58CF"/>
<path d="M156.179 256.754H150.248V247.382H152.083V255.12H156.179V256.754Z" fill="#8C58CF"/>
<path d="M132.141 247.382H137.697V249.015H133.976V251.198H137.363V252.831H133.976V255.12H137.764V256.754H132.141V247.382Z" fill="#8C58CF"/>
<path d="M116.055 252.885L116.296 254.478H116.363L116.63 252.871L118.424 247.382H120.352L116.871 256.821H115.559L112.052 247.382H114.18L116.055 252.885Z" fill="#8C58CF"/>
<path d="M94.8683 247.382H100.424V249.015H96.7025V251.198H100.09V252.831H96.7025V255.12H100.491V256.754H94.8683V247.382Z" fill="#8C58CF"/>
<path d="M75.0879 247.382C75.2753 247.355 75.4851 247.333 75.7171 247.315C75.9581 247.297 76.2036 247.284 76.4535 247.275C76.7034 247.266 76.9444 247.261 77.1765 247.261C77.4174 247.253 77.6316 247.248 77.8191 247.248C78.6492 247.248 79.3587 247.364 79.9478 247.596C80.5369 247.828 81.0144 248.154 81.3803 248.574C81.7463 248.993 82.0141 249.493 82.1836 250.073C82.3532 250.653 82.438 251.291 82.438 251.988C82.438 252.621 82.3577 253.233 82.197 253.822C82.0364 254.411 81.7686 254.933 81.3937 255.388C81.0189 255.843 80.5235 256.209 79.9076 256.486C79.3007 256.763 78.5465 256.901 77.645 256.901C77.5022 256.901 77.3103 256.897 77.0693 256.888C76.8373 256.879 76.5918 256.865 76.333 256.847C76.0831 256.839 75.8421 256.825 75.61 256.807C75.378 256.798 75.2039 256.785 75.0879 256.767V247.382ZM77.9664 248.881C77.77 248.881 77.5692 248.886 77.3639 248.895C77.1675 248.904 77.0203 248.917 76.9221 248.935V255.214C76.9578 255.223 77.0158 255.232 77.0961 255.241C77.1854 255.241 77.2791 255.245 77.3773 255.254C77.4755 255.254 77.5692 255.259 77.6584 255.268C77.7477 255.268 77.8146 255.268 77.8593 255.268C78.3769 255.268 78.8053 255.178 79.1445 255C79.4926 254.812 79.7648 254.567 79.9612 254.264C80.1665 253.96 80.3093 253.612 80.3896 253.219C80.4699 252.818 80.5101 252.407 80.5101 251.988C80.5101 251.622 80.4744 251.256 80.403 250.89C80.3316 250.515 80.1977 250.18 80.0014 249.886C79.8139 249.591 79.5551 249.35 79.2248 249.163C78.8946 248.975 78.4751 248.881 77.9664 248.881Z" fill="#8C58CF"/>
<path d="M47.8731 249.564C47.8731 249.796 47.8419 250.028 47.7794 250.26C47.7258 250.492 47.6321 250.707 47.4982 250.903C47.3644 251.091 47.1903 251.26 46.9761 251.412C46.7619 251.555 46.503 251.662 46.1996 251.733V251.813C46.4673 251.858 46.7217 251.934 46.9627 252.041C47.2037 252.148 47.4134 252.295 47.5919 252.483C47.7705 252.67 47.9088 252.898 48.007 253.166C48.1141 253.433 48.1676 253.75 48.1676 254.116C48.1676 254.598 48.065 255.018 47.8597 255.375C47.6544 255.723 47.3777 256.008 47.0296 256.232C46.6905 256.455 46.3022 256.62 45.8649 256.727C45.4275 256.834 44.9768 256.888 44.5127 256.888C44.3609 256.888 44.1646 256.888 43.9236 256.888C43.6915 256.888 43.4371 256.879 43.1605 256.861C42.8927 256.852 42.616 256.834 42.3304 256.807C42.0537 256.78 41.7993 256.74 41.5673 256.687V247.449C41.7368 247.422 41.9287 247.395 42.143 247.369C42.3661 247.342 42.6026 247.319 42.8525 247.302C43.1024 247.284 43.3568 247.27 43.6157 247.261C43.8834 247.253 44.1467 247.248 44.4056 247.248C44.8429 247.248 45.2669 247.284 45.6774 247.355C46.0969 247.418 46.4673 247.534 46.7887 247.703C47.1189 247.873 47.3822 248.109 47.5786 248.413C47.7749 248.716 47.8731 249.1 47.8731 249.564ZM44.5261 255.375C44.7492 255.375 44.9634 255.348 45.1687 255.294C45.3829 255.241 45.5703 255.161 45.731 255.053C45.8916 254.937 46.0211 254.795 46.1192 254.625C46.2174 254.455 46.2665 254.255 46.2665 254.023C46.2665 253.728 46.2085 253.496 46.0925 253.326C45.9764 253.157 45.8247 253.027 45.6373 252.938C45.4498 252.84 45.2401 252.777 45.008 252.751C44.776 252.724 44.5439 252.71 44.3118 252.71H43.3345V255.294C43.3791 255.312 43.4505 255.326 43.5487 255.335C43.6469 255.343 43.7495 255.352 43.8566 255.361C43.9727 255.361 44.0887 255.366 44.2047 255.375C44.3297 255.375 44.4368 255.375 44.5261 255.375ZM43.9236 251.318C44.0485 251.318 44.1913 251.314 44.352 251.305C44.5216 251.296 44.6599 251.282 44.767 251.265C45.1062 251.157 45.3963 250.997 45.6373 250.783C45.8872 250.568 46.0121 250.287 46.0121 249.939C46.0121 249.707 45.9675 249.515 45.8783 249.363C45.789 249.212 45.6685 249.091 45.5168 249.002C45.374 248.913 45.2089 248.85 45.0214 248.815C44.834 248.779 44.6376 248.761 44.4323 248.761C44.2003 248.761 43.9861 248.765 43.7897 248.774C43.5933 248.783 43.4416 248.797 43.3345 248.815V251.318H43.9236Z" fill="#8C58CF"/>
<path d="M23.4603 247.382H29.0164V249.015H25.2944V251.198H28.6817V252.831H25.2944V255.12H29.0833V256.754H23.4603V247.382Z" fill="#8C58CF"/>
<path d="M3.23994 252.617L3.41399 254.277H3.46754L3.65498 252.59L5.28834 247.382H6.49328L8.09986 252.617L8.28729 254.277H8.34085L8.54167 252.59L9.67967 247.382H11.5406L8.9567 256.821H7.72499L6.05146 251.613L5.82387 250.18H5.75692L5.52933 251.626L3.86919 256.821H2.57053L0 247.382H1.99484L3.23994 252.617Z" fill="#8C58CF"/>
<path d="M102.535 235.835C102.022 235.835 101.653 235.623 101.43 235.199C101.207 234.775 101.185 234.362 101.363 233.96L111.204 210.598C111.449 209.995 111.873 209.694 112.476 209.694C113.056 209.694 113.469 209.995 113.714 210.598L123.588 233.994C123.789 234.418 123.755 234.831 123.487 235.232C123.242 235.634 122.885 235.835 122.416 235.835C122.149 235.835 121.903 235.768 121.68 235.634C121.479 235.5 121.312 235.299 121.178 235.031L111.974 212.707H113.011L103.74 235.031C103.628 235.299 103.461 235.5 103.238 235.634C103.037 235.768 102.803 235.835 102.535 235.835ZM104.744 229.609L105.748 227.367H119.337L120.341 229.609H104.744Z" fill="#4D3C93"/>
<path d="M77.6598 235.835C77.2805 235.835 76.9681 235.712 76.7227 235.466C76.4772 235.221 76.3545 234.909 76.3545 234.529V211C76.3545 210.62 76.4772 210.308 76.7227 210.062C76.9681 209.817 77.2805 209.694 77.6598 209.694C78.0615 209.694 78.3962 209.85 78.664 210.163L94.6628 231.182V211C94.6628 210.62 94.7856 210.308 95.031 210.062C95.2765 209.817 95.5889 209.694 95.9682 209.694C96.3252 209.694 96.6265 209.817 96.8719 210.062C97.1397 210.308 97.2735 210.62 97.2735 211V234.529C97.2735 234.909 97.1397 235.221 96.8719 235.466C96.6265 235.712 96.3252 235.835 95.9682 235.835C95.7897 235.835 95.6112 235.801 95.4327 235.734C95.2542 235.667 95.1091 235.556 94.9976 235.4L78.9652 214.38V234.529C78.9652 234.909 78.8313 235.221 78.5635 235.466C78.3181 235.712 78.0169 235.835 77.6598 235.835Z" fill="#4D3C93"/>
<path d="M59.3403 236.37C57.3098 236.37 55.5023 235.98 53.9181 235.199C52.3561 234.418 51.1289 233.336 50.2363 231.952C49.3661 230.569 48.931 228.984 48.931 227.199V211C48.931 210.62 49.0537 210.308 49.2991 210.062C49.5446 209.817 49.857 209.694 50.2363 209.694C50.6156 209.694 50.928 209.817 51.1735 210.062C51.4189 210.308 51.5417 210.62 51.5417 211V227.199C51.5417 228.516 51.8652 229.676 52.5123 230.68C53.1817 231.684 54.1077 232.476 55.2904 233.057C56.473 233.614 57.823 233.893 59.3403 233.893C60.8353 233.893 62.163 233.614 63.3233 233.057C64.4836 232.476 65.3873 231.684 66.0344 230.68C66.7038 229.676 67.0385 228.516 67.0385 227.199V211C67.0385 210.62 67.1612 210.308 67.4067 210.062C67.6521 209.817 67.9645 209.694 68.3438 209.694C68.7455 209.694 69.0579 209.817 69.281 210.062C69.5265 210.308 69.6492 210.62 69.6492 211V227.199C69.6492 228.984 69.2029 230.569 68.3104 231.952C67.4402 233.336 66.2241 234.418 64.6621 235.199C63.1225 235.98 61.3485 236.37 59.3403 236.37Z" fill="#4D3C93"/>
<path d="M27.0619 235.835C26.6826 235.835 26.3702 235.712 26.1248 235.466C25.8793 235.221 25.7566 234.909 25.7566 234.529V211C25.7566 210.62 25.8793 210.308 26.1248 210.062C26.3702 209.817 26.6826 209.694 27.0619 209.694H42.7596C43.1166 209.694 43.4179 209.817 43.6633 210.062C43.9311 210.286 44.065 210.587 44.065 210.966C44.065 211.301 43.9311 211.591 43.6633 211.836C43.4179 212.082 43.1166 212.205 42.7596 212.205H28.3673V221.442H38.8436C39.2229 221.442 39.5353 221.565 39.7807 221.811C40.0262 222.056 40.1489 222.357 40.1489 222.714C40.1489 223.071 40.0262 223.372 39.7807 223.618C39.5353 223.863 39.2229 223.986 38.8436 223.986H28.3673V233.324H42.7596C43.1166 233.324 43.4179 233.447 43.6633 233.693C43.9311 233.938 44.065 234.228 44.065 234.563C44.065 234.942 43.9311 235.255 43.6633 235.5C43.4179 235.723 43.1166 235.835 42.7596 235.835H27.0619Z" fill="#4D3C93"/>
<path d="M1.30535 235.835C0.926017 235.835 0.613626 235.712 0.368176 235.466C0.122725 235.221 0 234.909 0 234.529V211C0 210.62 0.122725 210.308 0.368176 210.062C0.613626 209.817 0.926017 209.694 1.30535 209.694H7.33004C9.24901 209.694 11.0006 210.018 12.5849 210.665C14.1915 211.29 15.5749 212.193 16.7352 213.376C17.8956 214.536 18.7881 215.909 19.4129 217.493C20.06 219.077 20.3835 220.829 20.3835 222.748C20.3835 224.667 20.06 226.429 19.4129 228.036C18.7881 229.62 17.8956 231.004 16.7352 232.186C15.5749 233.347 14.1915 234.25 12.5849 234.897C11.0006 235.522 9.24901 235.835 7.33004 235.835H1.30535ZM2.6107 233.492H7.33004C9.38289 233.492 11.1903 233.034 12.7523 232.119C14.3365 231.182 15.5749 229.91 16.4675 228.304C17.36 226.675 17.8063 224.823 17.8063 222.748C17.8063 220.673 17.36 218.832 16.4675 217.225C15.5749 215.596 14.3365 214.324 12.7523 213.409C11.1903 212.495 9.38289 212.037 7.33004 212.037H2.6107V233.492Z" fill="#4D3C93"/>
<path fill-rule="evenodd" clip-rule="evenodd" d="M127.815 223.702C127.815 223.124 128.284 222.656 128.861 222.656H225.089C225.667 222.656 226.135 223.124 226.135 223.702C226.135 224.279 225.667 224.748 225.089 224.748H128.861C128.284 224.748 127.815 224.279 127.815 223.702Z" fill="black"/>
<defs>
<radialGradient id="paint0_radial_142_66" cx="0" cy="0" r="1" gradientUnits="userSpaceOnUse" gradientTransform="translate(97.6216 69.6586) rotate(-90) scale(65.4044 73.4205)">
<stop stop-color="#B456C4"/>
<stop offset="1" stop-color="#37295D"/>
</radialGradient>
<radialGradient id="paint1_radial_142_66" cx="0" cy="0" r="1" gradientUnits="userSpaceOnUse" gradientTransform="translate(122.575 73.4151) rotate(72.3599) scale(32.7034 22.1692)">
<stop stop-color="#B456C4"/>
<stop offset="1" stop-color="#37295D"/>
</radialGradient>
<radialGradient id="paint2_radial_142_66" cx="0" cy="0" r="1" gradientUnits="userSpaceOnUse" gradientTransform="translate(117.717 61.4761) rotate(107.64) scale(49.8995 43.9303)">
<stop stop-color="#B456C4"/>
<stop offset="1" stop-color="#37295D"/>
</radialGradient>
<radialGradient id="paint3_radial_142_66" cx="0" cy="0" r="1" gradientUnits="userSpaceOnUse" gradientTransform="translate(137.793 105.142) rotate(33.6403) scale(0.182185 39.2745)">
<stop stop-color="#B456C4"/>
<stop offset="1" stop-color="#37295D"/>
</radialGradient>
<radialGradient id="paint4_radial_142_66" cx="0" cy="0" r="1" gradientUnits="userSpaceOnUse" gradientTransform="translate(97.6216 69.6586) rotate(-90) scale(65.4044 73.4205)">
<stop stop-color="#B456C4"/>
<stop offset="1" stop-color="#37295D"/>
</radialGradient>
<radialGradient id="paint5_radial_142_66" cx="0" cy="0" r="1" gradientUnits="userSpaceOnUse" gradientTransform="translate(122.575 73.4151) rotate(72.3599) scale(32.7034 22.1692)">
<stop stop-color="#B456C4"/>
<stop offset="1" stop-color="#37295D"/>
</radialGradient>
<radialGradient id="paint6_radial_142_66" cx="0" cy="0" r="1" gradientUnits="userSpaceOnUse" gradientTransform="translate(117.717 61.4761) rotate(107.64) scale(49.8995 43.9303)">
<stop stop-color="#B456C4"/>
<stop offset="1" stop-color="#37295D"/>
</radialGradient>
<radialGradient id="paint7_radial_142_66" cx="0" cy="0" r="1" gradientUnits="userSpaceOnUse" gradientTransform="translate(137.793 105.142) rotate(33.6403) scale(0.182185 39.2745)">
<stop stop-color="#B456C4"/>
<stop offset="1" stop-color="#37295D"/>
</radialGradient>
</defs>
</svg>
