<svg width="553" height="637" viewBox="0 0 553 637" fill="none" xmlns="http://www.w3.org/2000/svg">
<path fill-rule="evenodd" clip-rule="evenodd" d="M250.503 375.062C248.513 375.063 246.678 373.99 245.704 372.254L44.2039 13.2543C43.2479 11.5512 43.2669 9.46887 44.2537 7.78345C45.2404 6.09802 47.047 5.06229 49 5.06229L452 5.06229C455.038 5.06229 457.5 7.52472 457.5 10.5623C457.5 13.5999 455.038 16.0623 452 16.0623L58.3942 16.0623L250.494 358.315L283.01 300.239C284.494 297.588 287.845 296.643 290.496 298.127C293.146 299.611 294.092 302.962 292.608 305.613L255.299 372.249C254.327 373.985 252.493 375.061 250.503 375.062Z" fill="url(#paint0_radial_17_615)"/>
<path fill-rule="evenodd" clip-rule="evenodd" d="M279.374 151.429C277.248 159.348 277.852 169.215 283.392 181.076C284.677 183.828 283.488 187.101 280.736 188.387C277.984 189.673 274.711 188.484 273.425 185.732C266.99 171.953 265.84 159.421 268.75 148.578C271.649 137.773 278.426 129.218 286.836 123.075C303.354 111.007 327.32 107.465 344.247 115.042C344.268 115.052 344.29 115.061 344.311 115.071C366.612 125.396 372.74 155.563 357.408 185.886C357.385 185.931 357.362 185.976 357.338 186.021L291.838 307.117C290.393 309.788 287.055 310.783 284.383 309.338C281.712 307.893 280.717 304.555 282.162 301.883L347.625 180.855C361.53 153.295 353.822 131.623 339.72 125.068C326.934 119.363 307.15 121.857 293.325 131.957C286.556 136.902 281.509 143.471 279.374 151.429Z" fill="url(#paint1_radial_17_615)"/>
<path fill-rule="evenodd" clip-rule="evenodd" d="M320.003 46.4141C340.28 46.6487 366.88 50.883 392.614 66.7444C417.239 81.9221 426.648 108.758 426.965 136.507C427.282 164.359 418.371 191.785 408.015 206.379C406.257 208.856 406.84 212.29 409.317 214.048C411.794 215.806 415.227 215.223 416.985 212.745C428.894 195.965 438.303 166.172 437.964 136.382C437.623 106.49 427.4 75.2632 398.386 57.3802C370.481 40.1807 341.762 35.6651 320.131 35.4149C309.304 35.2896 300.201 36.2314 293.779 37.2103C290.565 37.7001 288.016 38.2002 286.251 38.5833C285.368 38.7749 284.68 38.9373 284.203 39.0548C283.964 39.1135 283.778 39.161 283.646 39.1953C283.631 39.1991 283.617 39.2028 283.604 39.2063C250.268 46.0895 224.342 64.6416 209.138 86.5348C194.004 108.327 189.066 134.228 199.592 155.044C199.61 155.079 199.628 155.115 199.647 155.15L280.647 307.087C282.076 309.768 285.407 310.782 288.087 309.353C290.768 307.924 291.782 304.593 290.353 301.913L209.382 150.029C201.301 133.987 204.504 112.491 218.173 92.8093C231.762 73.2414 255.282 56.2489 285.969 49.95C286.082 49.9267 286.195 49.9 286.306 49.8697C286.306 49.8697 286.306 49.8696 286.306 49.8696C286.307 49.8695 286.307 49.8694 286.307 49.8694C286.308 49.8692 286.308 49.8691 286.309 49.869C286.31 49.8687 286.311 49.8684 286.312 49.8681L286.321 49.8658C286.337 49.8613 286.368 49.8534 286.411 49.8421C286.498 49.8195 286.638 49.7836 286.83 49.7364C287.214 49.6421 287.803 49.5025 288.584 49.3331C290.145 48.9944 292.468 48.5371 295.436 48.0847C301.377 47.1791 309.875 46.297 320.003 46.4141Z" fill="url(#paint2_radial_17_615)"/>
<path fill-rule="evenodd" clip-rule="evenodd" d="M422.223 192.784C424.862 194.287 425.782 197.646 424.279 200.285L324.279 375.785C322.775 378.424 319.416 379.345 316.777 377.841C314.138 376.337 313.217 372.979 314.721 370.339L414.721 194.839C416.225 192.2 419.584 191.28 422.223 192.784Z" fill="url(#paint3_radial_17_615)"/>
<path d="M481.048 503C479.368 503 478.078 502.28 477.178 500.84C476.278 499.4 476.188 497.87 476.908 496.25L502.198 435.86C503.098 433.76 504.568 432.71 506.608 432.71C508.768 432.71 510.238 433.76 511.018 435.86L536.398 496.43C537.058 498.11 536.938 499.64 536.038 501.02C535.198 502.34 533.908 503 532.168 503C531.268 503 530.398 502.76 529.558 502.28C528.778 501.74 528.208 501.02 527.848 500.12L505.528 444.68H508.048L485.368 500.12C484.948 501.08 484.318 501.8 483.478 502.28C482.698 502.76 481.888 503 481.048 503ZM485.818 487.52L489.418 479.78H524.698L528.298 487.52H485.818Z" fill="#302460"/>
<path d="M430.684 503C429.364 503 428.254 502.55 427.354 501.65C426.514 500.75 426.094 499.64 426.094 498.32V437.39C426.094 436.07 426.544 434.96 427.444 434.06C428.344 433.16 429.424 432.71 430.684 432.71C432.004 432.71 433.114 433.16 434.014 434.06C434.914 434.96 435.364 436.07 435.364 437.39V493.64H467.944C469.264 493.64 470.374 494.09 471.274 494.99C472.174 495.89 472.624 497 472.624 498.32C472.624 499.64 472.174 500.75 471.274 501.65C470.374 502.55 469.264 503 467.944 503H430.684Z" fill="#302460"/>
<path d="M367.756 503C366.436 503 365.326 502.55 364.426 501.65C363.526 500.75 363.076 499.64 363.076 498.32V437.39C363.076 436.01 363.526 434.9 364.426 434.06C365.326 433.16 366.436 432.71 367.756 432.71H408.436C409.816 432.71 410.926 433.13 411.766 433.97C412.606 434.75 413.026 435.8 413.026 437.12C413.026 438.38 412.606 439.4 411.766 440.18C410.926 440.96 409.816 441.35 408.436 441.35H372.436V463.22H398.266C399.646 463.22 400.756 463.64 401.596 464.48C402.436 465.26 402.856 466.28 402.856 467.54C402.856 468.8 402.436 469.85 401.596 470.69C400.756 471.47 399.646 471.86 398.266 471.86H372.436V494.36H408.436C409.816 494.36 410.926 494.75 411.766 495.53C412.606 496.31 413.026 497.33 413.026 498.59C413.026 499.91 412.606 500.99 411.766 501.83C410.926 502.61 409.816 503 408.436 503H367.756Z" fill="#302460"/>
<path d="M297.005 503C295.325 503 294.035 502.28 293.135 500.84C292.235 499.4 292.145 497.87 292.865 496.25L318.155 435.86C319.055 433.76 320.525 432.71 322.565 432.71C324.725 432.71 326.195 433.76 326.975 435.86L352.355 496.43C353.015 498.11 352.895 499.64 351.995 501.02C351.155 502.34 349.865 503 348.125 503C347.225 503 346.355 502.76 345.515 502.28C344.735 501.74 344.165 501.02 343.805 500.12L321.485 444.68H324.005L301.325 500.12C300.905 501.08 300.275 501.8 299.435 502.28C298.655 502.76 297.845 503 297.005 503ZM301.775 487.52L305.375 479.78H340.655L344.255 487.52H301.775Z" fill="#302460"/>
<path d="M226.076 503C224.756 503 223.646 502.55 222.746 501.65C221.846 500.75 221.396 499.64 221.396 498.32V437.39C221.396 436.01 221.846 434.9 222.746 434.06C223.646 433.16 224.756 432.71 226.076 432.71C227.456 432.71 228.566 433.16 229.406 434.06C230.306 434.9 230.756 436.01 230.756 437.39V463.22H272.516V437.39C272.516 436.01 272.966 434.9 273.866 434.06C274.766 433.16 275.876 432.71 277.196 432.71C278.576 432.71 279.686 433.16 280.526 434.06C281.366 434.9 281.786 436.01 281.786 437.39V498.32C281.786 499.64 281.366 500.75 280.526 501.65C279.686 502.55 278.576 503 277.196 503C275.876 503 274.766 502.55 273.866 501.65C272.966 500.75 272.516 499.64 272.516 498.32V471.5H230.756V498.32C230.756 499.64 230.306 500.75 229.406 501.65C228.566 502.55 227.456 503 226.076 503Z" fill="#302460"/>
<path d="M182.936 503.9C178.076 503.9 173.516 503 169.256 501.2C165.056 499.34 161.366 496.79 158.186 493.55C155.066 490.25 152.606 486.41 150.806 482.03C149.066 477.65 148.196 472.91 148.196 467.81C148.196 462.77 149.066 458.09 150.806 453.77C152.606 449.39 155.066 445.58 158.186 442.34C161.366 439.04 165.056 436.46 169.256 434.6C173.456 432.74 178.016 431.81 182.936 431.81C187.556 431.81 191.516 432.41 194.816 433.61C198.176 434.81 201.536 436.79 204.896 439.55C205.376 439.91 205.736 440.3 205.976 440.72C206.276 441.08 206.456 441.47 206.516 441.89C206.636 442.25 206.696 442.7 206.696 443.24C206.696 444.38 206.276 445.34 205.436 446.12C204.656 446.84 203.696 447.26 202.556 447.38C201.416 447.44 200.306 447.05 199.226 446.21C197.006 444.29 194.696 442.82 192.296 441.8C189.956 440.78 186.836 440.27 182.936 440.27C179.396 440.27 176.066 440.99 172.946 442.43C169.826 443.87 167.066 445.85 164.666 448.37C162.326 450.89 160.496 453.83 159.176 457.19C157.856 460.49 157.196 464.03 157.196 467.81C157.196 471.65 157.856 475.25 159.176 478.61C160.496 481.91 162.326 484.82 164.666 487.34C167.066 489.86 169.826 491.84 172.946 493.28C176.066 494.66 179.396 495.35 182.936 495.35C185.996 495.35 188.876 494.84 191.576 493.82C194.336 492.74 196.976 491.27 199.496 489.41C200.576 488.63 201.626 488.3 202.646 488.42C203.726 488.48 204.626 488.9 205.346 489.68C206.066 490.4 206.426 491.42 206.426 492.74C206.426 493.34 206.306 493.94 206.066 494.54C205.826 495.08 205.466 495.59 204.986 496.07C201.746 498.65 198.266 500.6 194.546 501.92C190.886 503.24 187.016 503.9 182.936 503.9Z" fill="#302460"/>
<path d="M93.098 503C91.778 503 90.668 502.55 89.768 501.65C88.868 500.75 88.418 499.64 88.418 498.32V437.39C88.418 436.01 88.868 434.9 89.768 434.06C90.668 433.16 91.778 432.71 93.098 432.71H133.778C135.158 432.71 136.268 433.13 137.108 433.97C137.948 434.75 138.368 435.8 138.368 437.12C138.368 438.38 137.948 439.4 137.108 440.18C136.268 440.96 135.158 441.35 133.778 441.35H97.778V463.22H123.608C124.988 463.22 126.098 463.64 126.938 464.48C127.778 465.26 128.198 466.28 128.198 467.54C128.198 468.8 127.778 469.85 126.938 470.69C126.098 471.47 124.988 471.86 123.608 471.86H97.778V494.36H133.778C135.158 494.36 136.268 494.75 137.108 495.53C137.948 496.31 138.368 497.33 138.368 498.59C138.368 499.91 137.948 500.99 137.108 501.83C136.268 502.61 135.158 503 133.778 503H93.098Z" fill="#302460"/>
<path d="M4.68 503C3.36 503 2.25 502.55 1.35 501.65C0.45 500.75 0 499.64 0 498.32V437.39C0 436.01 0.45 434.9 1.35 434.06C2.25 433.16 3.36 432.71 4.68 432.71C6.48 432.71 7.86 433.55 8.82 435.23L36.99 491.66H34.11L61.56 435.23C62.52 433.55 63.9 432.71 65.7 432.71C67.02 432.71 68.13 433.16 69.03 434.06C69.93 434.9 70.38 436.01 70.38 437.39V498.32C70.38 499.64 69.9 500.75 68.94 501.65C68.04 502.55 66.96 503 65.7 503C64.38 503 63.27 502.55 62.37 501.65C61.47 500.75 61.02 499.64 61.02 498.32V450.35L62.82 449.9L39.24 497.96C38.22 499.52 36.87 500.3 35.19 500.3C33.21 500.3 31.77 499.37 30.87 497.51L7.56 450.8L9.36 450.35V498.32C9.36 499.64 8.91 500.75 8.01 501.65C7.11 502.55 6 503 4.68 503Z" fill="#302460"/>
<path d="M535.296 613.824C535.787 613.739 536.309 613.664 536.864 613.6C537.44 613.515 538.006 613.451 538.56 613.408C539.136 613.365 539.691 613.333 540.224 613.312C540.758 613.291 541.248 613.28 541.696 613.28C542.742 613.28 543.766 613.376 544.768 613.568C545.792 613.76 546.699 614.091 547.488 614.56C548.299 615.029 548.939 615.68 549.408 616.512C549.899 617.323 550.144 618.347 550.144 619.584C550.144 621.419 549.717 622.912 548.864 624.064C548.011 625.216 546.87 626.016 545.44 626.464L547.008 627.456L552.128 636H547.072L541.984 627.232L539.68 626.816V636H535.296V613.824ZM542.016 617.184C541.568 617.184 541.12 617.195 540.672 617.216C540.246 617.237 539.915 617.28 539.68 617.344V623.84H541.536C542.752 623.84 543.723 623.563 544.448 623.008C545.174 622.453 545.536 621.536 545.536 620.256C545.536 619.296 545.237 618.549 544.64 618.016C544.043 617.461 543.168 617.184 542.016 617.184Z" fill="#8C58CF"/>
<path d="M492.018 613.6H505.298V617.504H496.402V622.72H504.498V626.624H496.402V632.096H505.458V636H492.018V613.6Z" fill="#8C58CF"/>
<path d="M447.145 613.824C448.041 613.653 449.022 613.525 450.089 613.44C451.177 613.333 452.254 613.28 453.321 613.28C454.43 613.28 455.54 613.376 456.649 613.568C457.78 613.739 458.793 614.101 459.689 614.656C460.585 615.189 461.31 615.947 461.865 616.928C462.441 617.888 462.729 619.147 462.729 620.704C462.729 622.112 462.484 623.307 461.993 624.288C461.502 625.248 460.852 626.037 460.041 626.656C459.23 627.275 458.302 627.723 457.257 628C456.233 628.277 455.166 628.416 454.057 628.416C453.95 628.416 453.78 628.416 453.545 628.416C453.31 628.416 453.065 628.416 452.809 628.416C452.553 628.395 452.297 628.373 452.041 628.352C451.806 628.331 451.636 628.309 451.529 628.288V636H447.145V613.824ZM453.673 617.056C453.246 617.056 452.841 617.077 452.457 617.12C452.073 617.141 451.764 617.173 451.529 617.216V624.48C451.614 624.501 451.742 624.523 451.913 624.544C452.084 624.565 452.265 624.587 452.457 624.608C452.649 624.608 452.83 624.608 453.001 624.608C453.193 624.608 453.332 624.608 453.417 624.608C453.993 624.608 454.558 624.555 455.113 624.448C455.689 624.341 456.201 624.149 456.649 623.872C457.097 623.573 457.449 623.168 457.705 622.656C457.982 622.144 458.121 621.472 458.121 620.64C458.121 619.936 457.993 619.36 457.737 618.912C457.481 618.443 457.14 618.069 456.713 617.792C456.308 617.515 455.838 617.323 455.305 617.216C454.772 617.109 454.228 617.056 453.673 617.056Z" fill="#8C58CF"/>
<path d="M398.443 624.8C398.443 621.067 399.265 618.197 400.907 616.192C402.55 614.165 404.897 613.152 407.947 613.152C409.547 613.152 410.945 613.429 412.139 613.984C413.334 614.539 414.326 615.328 415.115 616.352C415.905 617.376 416.491 618.603 416.875 620.032C417.259 621.461 417.451 623.051 417.451 624.8C417.451 628.533 416.619 631.413 414.955 633.44C413.313 635.445 410.977 636.448 407.947 636.448C406.326 636.448 404.918 636.171 403.723 635.616C402.529 635.061 401.537 634.272 400.747 633.248C399.979 632.224 399.403 630.997 399.019 629.568C398.635 628.139 398.443 626.549 398.443 624.8ZM403.051 624.8C403.051 625.931 403.147 626.976 403.339 627.936C403.531 628.875 403.819 629.685 404.203 630.368C404.609 631.051 405.121 631.584 405.739 631.968C406.358 632.352 407.094 632.544 407.947 632.544C409.505 632.544 410.71 631.936 411.563 630.72C412.417 629.504 412.843 627.531 412.843 624.8C412.843 623.712 412.747 622.699 412.555 621.76C412.385 620.821 412.107 620 411.723 619.296C411.339 618.592 410.838 618.048 410.219 617.664C409.601 617.259 408.843 617.056 407.947 617.056C406.39 617.056 405.185 617.685 404.331 618.944C403.478 620.181 403.051 622.133 403.051 624.8Z" fill="#8C58CF"/>
<path d="M373.295 636H359.119V613.6H363.503V632.096H373.295V636Z" fill="#8C58CF"/>
<path d="M315.84 613.6H329.12V617.504H320.224V622.72H328.32V626.624H320.224V632.096H329.28V636H315.84V613.6Z" fill="#8C58CF"/>
<path d="M277.39 626.752L277.966 630.56H278.126L278.766 626.72L283.054 613.6H287.662L279.342 636.16H276.206L267.822 613.6H272.91L277.39 626.752Z" fill="#8C58CF"/>
<path d="M226.751 613.6H240.031V617.504H231.135V622.72H239.231V626.624H231.135V632.096H240.191V636H226.751V613.6Z" fill="#8C58CF"/>
<path d="M179.472 613.6C179.92 613.536 180.422 613.483 180.976 613.44C181.552 613.397 182.139 613.365 182.736 613.344C183.334 613.323 183.91 613.312 184.464 613.312C185.04 613.291 185.552 613.28 186 613.28C187.984 613.28 189.68 613.557 191.088 614.112C192.496 614.667 193.638 615.445 194.512 616.448C195.387 617.451 196.027 618.645 196.432 620.032C196.838 621.419 197.04 622.944 197.04 624.608C197.04 626.123 196.848 627.584 196.464 628.992C196.08 630.4 195.44 631.648 194.544 632.736C193.648 633.824 192.464 634.699 190.992 635.36C189.542 636.021 187.739 636.352 185.584 636.352C185.243 636.352 184.784 636.341 184.208 636.32C183.654 636.299 183.067 636.267 182.448 636.224C181.851 636.203 181.275 636.171 180.72 636.128C180.166 636.107 179.75 636.075 179.472 636.032V613.6ZM186.352 617.184C185.883 617.184 185.403 617.195 184.912 617.216C184.443 617.237 184.091 617.269 183.856 617.312V632.32C183.942 632.341 184.08 632.363 184.272 632.384C184.486 632.384 184.71 632.395 184.944 632.416C185.179 632.416 185.403 632.427 185.616 632.448C185.83 632.448 185.99 632.448 186.096 632.448C187.334 632.448 188.358 632.235 189.168 631.808C190 631.36 190.651 630.773 191.12 630.048C191.611 629.323 191.952 628.491 192.144 627.552C192.336 626.592 192.432 625.611 192.432 624.608C192.432 623.733 192.347 622.859 192.176 621.984C192.006 621.088 191.686 620.288 191.216 619.584C190.768 618.88 190.15 618.304 189.36 617.856C188.571 617.408 187.568 617.184 186.352 617.184Z" fill="#8C58CF"/>
<path d="M114.425 618.816C114.425 619.371 114.35 619.925 114.201 620.48C114.073 621.035 113.849 621.547 113.529 622.016C113.209 622.464 112.793 622.869 112.281 623.232C111.769 623.573 111.15 623.829 110.425 624V624.192C111.065 624.299 111.673 624.48 112.249 624.736C112.825 624.992 113.326 625.344 113.753 625.792C114.179 626.24 114.51 626.784 114.745 627.424C115.001 628.064 115.129 628.821 115.129 629.696C115.129 630.848 114.883 631.851 114.393 632.704C113.902 633.536 113.241 634.219 112.409 634.752C111.598 635.285 110.67 635.68 109.625 635.936C108.579 636.192 107.502 636.32 106.393 636.32C106.03 636.32 105.561 636.32 104.985 636.32C104.43 636.32 103.822 636.299 103.161 636.256C102.521 636.235 101.859 636.192 101.177 636.128C100.515 636.064 99.9072 635.968 99.3525 635.84V613.76C99.7579 613.696 100.217 613.632 100.729 613.568C101.262 613.504 101.827 613.451 102.425 613.408C103.022 613.365 103.63 613.333 104.249 613.312C104.889 613.291 105.518 613.28 106.137 613.28C107.182 613.28 108.195 613.365 109.177 613.536C110.179 613.685 111.065 613.963 111.833 614.368C112.622 614.773 113.251 615.339 113.721 616.064C114.19 616.789 114.425 617.707 114.425 618.816ZM106.425 632.704C106.958 632.704 107.47 632.64 107.961 632.512C108.473 632.384 108.921 632.192 109.305 631.936C109.689 631.659 109.998 631.317 110.233 630.912C110.467 630.507 110.585 630.027 110.585 629.472C110.585 628.768 110.446 628.213 110.169 627.808C109.891 627.403 109.529 627.093 109.081 626.88C108.633 626.645 108.131 626.496 107.577 626.432C107.022 626.368 106.467 626.336 105.913 626.336H103.577V632.512C103.683 632.555 103.854 632.587 104.089 632.608C104.323 632.629 104.569 632.651 104.825 632.672C105.102 632.672 105.379 632.683 105.657 632.704C105.955 632.704 106.211 632.704 106.425 632.704ZM104.985 623.008C105.283 623.008 105.625 622.997 106.009 622.976C106.414 622.955 106.745 622.923 107.001 622.88C107.811 622.624 108.505 622.24 109.081 621.728C109.678 621.216 109.977 620.544 109.977 619.712C109.977 619.157 109.87 618.699 109.657 618.336C109.443 617.973 109.155 617.685 108.793 617.472C108.451 617.259 108.057 617.109 107.609 617.024C107.161 616.939 106.691 616.896 106.201 616.896C105.646 616.896 105.134 616.907 104.665 616.928C104.195 616.949 103.833 616.981 103.577 617.024V623.008H104.985Z" fill="#8C58CF"/>
<path d="M56.0737 613.6H69.3537V617.504H60.4577V622.72H68.5537V626.624H60.4577V632.096H69.5137V636H56.0737V613.6Z" fill="#8C58CF"/>
<path d="M7.744 626.112L8.16 630.08H8.288L8.736 626.048L12.64 613.6H15.52L19.36 626.112L19.808 630.08H19.936L20.416 626.048L23.136 613.6H27.584L21.408 636.16H18.464L14.464 623.712L13.92 620.288H13.76L13.216 623.744L9.248 636.16H6.144L0 613.6H4.768L7.744 626.112Z" fill="#8C58CF"/>
<path d="M245.076 586C243.849 586 242.969 585.493 242.436 584.48C241.902 583.467 241.849 582.48 242.276 581.52L265.796 525.68C266.382 524.24 267.396 523.52 268.836 523.52C270.222 523.52 271.209 524.24 271.796 525.68L295.396 581.6C295.876 582.613 295.796 583.6 295.156 584.56C294.569 585.52 293.716 586 292.596 586C291.956 586 291.369 585.84 290.836 585.52C290.356 585.2 289.956 584.72 289.636 584.08L267.636 530.72H270.116L247.956 584.08C247.689 584.72 247.289 585.2 246.756 585.52C246.276 585.84 245.716 586 245.076 586ZM250.356 571.12L252.756 565.76H285.236L287.636 571.12H250.356Z" fill="#4D3C93"/>
<path d="M185.62 586C184.713 586 183.967 585.707 183.38 585.12C182.793 584.533 182.5 583.787 182.5 582.88V526.64C182.5 525.733 182.793 524.987 183.38 524.4C183.967 523.813 184.713 523.52 185.62 523.52C186.58 523.52 187.38 523.893 188.02 524.64L226.26 574.88V526.64C226.26 525.733 226.553 524.987 227.14 524.4C227.727 523.813 228.473 523.52 229.38 523.52C230.233 523.52 230.953 523.813 231.54 524.4C232.18 524.987 232.5 525.733 232.5 526.64V582.88C232.5 583.787 232.18 584.533 231.54 585.12C230.953 585.707 230.233 586 229.38 586C228.953 586 228.527 585.92 228.1 585.76C227.673 585.6 227.327 585.333 227.06 584.96L188.74 534.72V582.88C188.74 583.787 188.42 584.533 187.78 585.12C187.193 585.707 186.473 586 185.62 586Z" fill="#4D3C93"/>
<path d="M141.833 587.28C136.98 587.28 132.66 586.347 128.873 584.48C125.14 582.613 122.206 580.027 120.073 576.72C117.993 573.413 116.953 569.627 116.953 565.36V526.64C116.953 525.733 117.246 524.987 117.833 524.4C118.42 523.813 119.166 523.52 120.073 523.52C120.98 523.52 121.726 523.813 122.313 524.4C122.9 524.987 123.193 525.733 123.193 526.64V565.36C123.193 568.507 123.966 571.28 125.513 573.68C127.113 576.08 129.326 577.973 132.153 579.36C134.98 580.693 138.206 581.36 141.833 581.36C145.406 581.36 148.58 580.693 151.353 579.36C154.126 577.973 156.286 576.08 157.833 573.68C159.433 571.28 160.233 568.507 160.233 565.36V526.64C160.233 525.733 160.526 524.987 161.113 524.4C161.7 523.813 162.446 523.52 163.353 523.52C164.313 523.52 165.06 523.813 165.593 524.4C166.18 524.987 166.473 525.733 166.473 526.64V565.36C166.473 569.627 165.406 573.413 163.273 576.72C161.193 580.027 158.286 582.613 154.553 584.48C150.873 586.347 146.633 587.28 141.833 587.28Z" fill="#4D3C93"/>
<path d="M64.6825 586C63.7758 586 63.0292 585.707 62.4425 585.12C61.8558 584.533 61.5625 583.787 61.5625 582.88V526.64C61.5625 525.733 61.8558 524.987 62.4425 524.4C63.0292 523.813 63.7758 523.52 64.6825 523.52H102.202C103.056 523.52 103.776 523.813 104.363 524.4C105.003 524.933 105.323 525.653 105.323 526.56C105.323 527.36 105.003 528.053 104.363 528.64C103.776 529.227 103.056 529.52 102.202 529.52H67.8025V551.6H92.8425C93.7492 551.6 94.4958 551.893 95.0825 552.48C95.6692 553.067 95.9625 553.787 95.9625 554.64C95.9625 555.493 95.6692 556.213 95.0825 556.8C94.4958 557.387 93.7492 557.68 92.8425 557.68H67.8025V580H102.202C103.056 580 103.776 580.293 104.363 580.88C105.003 581.467 105.323 582.16 105.323 582.96C105.323 583.867 105.003 584.613 104.363 585.2C103.776 585.733 103.056 586 102.202 586H64.6825Z" fill="#4D3C93"/>
<path d="M3.12 586C2.21333 586 1.46667 585.707 0.880001 585.12C0.293334 584.533 0 583.787 0 582.88V526.64C0 525.733 0.293334 524.987 0.880001 524.4C1.46667 523.813 2.21333 523.52 3.12 523.52H17.52C22.1067 523.52 26.2933 524.293 30.08 525.84C33.92 527.333 37.2267 529.493 40 532.32C42.7733 535.093 44.9067 538.373 46.4 542.16C47.9467 545.947 48.72 550.133 48.72 554.72C48.72 559.307 47.9467 563.52 46.4 567.36C44.9067 571.147 42.7733 574.453 40 577.28C37.2267 580.053 33.92 582.213 30.08 583.76C26.2933 585.253 22.1067 586 17.52 586H3.12ZM6.24 580.4H17.52C22.4267 580.4 26.7467 579.307 30.48 577.12C34.2667 574.88 37.2267 571.84 39.36 568C41.4933 564.107 42.56 559.68 42.56 554.72C42.56 549.76 41.4933 545.36 39.36 541.52C37.2267 537.627 34.2667 534.587 30.48 532.4C26.7467 530.213 22.4267 529.12 17.52 529.12H6.24V580.4Z" fill="#4D3C93"/>
<path fill-rule="evenodd" clip-rule="evenodd" d="M250.503 375.062C248.513 375.063 246.678 373.99 245.704 372.254L44.2039 13.2543C43.2479 11.5512 43.2669 9.46887 44.2537 7.78345C45.2404 6.09802 47.047 5.06229 49 5.06229L452 5.06229C455.038 5.06229 457.5 7.52472 457.5 10.5623C457.5 13.5999 455.038 16.0623 452 16.0623L58.3942 16.0623L250.494 358.315L283.01 300.239C284.494 297.588 287.845 296.643 290.496 298.127C293.146 299.611 294.092 302.962 292.608 305.613L255.299 372.249C254.327 373.985 252.493 375.061 250.503 375.062Z" fill="url(#paint4_radial_17_615)"/>
<path fill-rule="evenodd" clip-rule="evenodd" d="M279.374 151.429C277.248 159.348 277.852 169.215 283.392 181.076C284.677 183.828 283.488 187.101 280.736 188.387C277.984 189.673 274.711 188.484 273.425 185.732C266.99 171.953 265.84 159.421 268.75 148.578C271.649 137.773 278.426 129.218 286.836 123.075C303.354 111.007 327.32 107.465 344.247 115.042C344.268 115.052 344.29 115.061 344.311 115.071C366.612 125.396 372.74 155.563 357.408 185.886C357.385 185.931 357.362 185.976 357.338 186.021L291.838 307.117C290.393 309.788 287.055 310.783 284.383 309.338C281.712 307.893 280.717 304.555 282.162 301.883L347.625 180.855C361.53 153.295 353.822 131.623 339.72 125.068C326.934 119.363 307.15 121.857 293.325 131.957C286.556 136.902 281.509 143.471 279.374 151.429Z" fill="url(#paint5_radial_17_615)"/>
<path fill-rule="evenodd" clip-rule="evenodd" d="M320.003 46.4141C340.28 46.6487 366.88 50.883 392.614 66.7444C417.239 81.9221 426.648 108.758 426.965 136.507C427.282 164.359 418.371 191.785 408.015 206.379C406.257 208.856 406.84 212.29 409.317 214.048C411.794 215.806 415.227 215.223 416.985 212.745C428.894 195.965 438.303 166.172 437.964 136.382C437.623 106.49 427.4 75.2632 398.386 57.3802C370.481 40.1807 341.762 35.6651 320.131 35.4149C309.304 35.2896 300.201 36.2314 293.779 37.2103C290.565 37.7001 288.016 38.2002 286.251 38.5833C285.368 38.7749 284.68 38.9373 284.203 39.0548C283.964 39.1135 283.778 39.161 283.646 39.1953C283.631 39.1991 283.617 39.2028 283.604 39.2063C250.268 46.0895 224.342 64.6416 209.138 86.5348C194.004 108.327 189.066 134.228 199.592 155.044C199.61 155.079 199.628 155.115 199.647 155.15L280.647 307.087C282.076 309.768 285.407 310.782 288.087 309.353C290.768 307.924 291.782 304.593 290.353 301.913L209.382 150.029C201.301 133.987 204.504 112.491 218.173 92.8093C231.762 73.2414 255.282 56.2489 285.969 49.95C286.082 49.9267 286.195 49.9 286.306 49.8697C286.306 49.8697 286.306 49.8696 286.306 49.8696C286.307 49.8695 286.307 49.8694 286.307 49.8694C286.308 49.8692 286.308 49.8691 286.309 49.869C286.31 49.8687 286.311 49.8684 286.312 49.8681L286.321 49.8658C286.337 49.8613 286.368 49.8534 286.411 49.8421C286.498 49.8195 286.638 49.7836 286.83 49.7364C287.214 49.6421 287.803 49.5025 288.584 49.3331C290.145 48.9944 292.468 48.5371 295.436 48.0847C301.377 47.1791 309.875 46.297 320.003 46.4141Z" fill="url(#paint6_radial_17_615)"/>
<path fill-rule="evenodd" clip-rule="evenodd" d="M422.223 192.784C424.862 194.287 425.782 197.646 424.279 200.285L324.279 375.785C322.775 378.424 319.416 379.345 316.777 377.841C314.138 376.337 313.217 372.979 314.721 370.339L414.721 194.839C416.225 192.2 419.584 191.28 422.223 192.784Z" fill="url(#paint7_radial_17_615)"/>
<path d="M481.048 503C479.368 503 478.078 502.28 477.178 500.84C476.278 499.4 476.188 497.87 476.908 496.25L502.198 435.86C503.098 433.76 504.568 432.71 506.608 432.71C508.768 432.71 510.238 433.76 511.018 435.86L536.398 496.43C537.058 498.11 536.938 499.64 536.038 501.02C535.198 502.34 533.908 503 532.168 503C531.268 503 530.398 502.76 529.558 502.28C528.778 501.74 528.208 501.02 527.848 500.12L505.528 444.68H508.048L485.368 500.12C484.948 501.08 484.318 501.8 483.478 502.28C482.698 502.76 481.888 503 481.048 503ZM485.818 487.52L489.418 479.78H524.698L528.298 487.52H485.818Z" fill="#302460"/>
<path d="M430.684 503C429.364 503 428.254 502.55 427.354 501.65C426.514 500.75 426.094 499.64 426.094 498.32V437.39C426.094 436.07 426.544 434.96 427.444 434.06C428.344 433.16 429.424 432.71 430.684 432.71C432.004 432.71 433.114 433.16 434.014 434.06C434.914 434.96 435.364 436.07 435.364 437.39V493.64H467.944C469.264 493.64 470.374 494.09 471.274 494.99C472.174 495.89 472.624 497 472.624 498.32C472.624 499.64 472.174 500.75 471.274 501.65C470.374 502.55 469.264 503 467.944 503H430.684Z" fill="#302460"/>
<path d="M367.756 503C366.436 503 365.326 502.55 364.426 501.65C363.526 500.75 363.076 499.64 363.076 498.32V437.39C363.076 436.01 363.526 434.9 364.426 434.06C365.326 433.16 366.436 432.71 367.756 432.71H408.436C409.816 432.71 410.926 433.13 411.766 433.97C412.606 434.75 413.026 435.8 413.026 437.12C413.026 438.38 412.606 439.4 411.766 440.18C410.926 440.96 409.816 441.35 408.436 441.35H372.436V463.22H398.266C399.646 463.22 400.756 463.64 401.596 464.48C402.436 465.26 402.856 466.28 402.856 467.54C402.856 468.8 402.436 469.85 401.596 470.69C400.756 471.47 399.646 471.86 398.266 471.86H372.436V494.36H408.436C409.816 494.36 410.926 494.75 411.766 495.53C412.606 496.31 413.026 497.33 413.026 498.59C413.026 499.91 412.606 500.99 411.766 501.83C410.926 502.61 409.816 503 408.436 503H367.756Z" fill="#302460"/>
<path d="M297.005 503C295.325 503 294.035 502.28 293.135 500.84C292.235 499.4 292.145 497.87 292.865 496.25L318.155 435.86C319.055 433.76 320.525 432.71 322.565 432.71C324.725 432.71 326.195 433.76 326.975 435.86L352.355 496.43C353.015 498.11 352.895 499.64 351.995 501.02C351.155 502.34 349.865 503 348.125 503C347.225 503 346.355 502.76 345.515 502.28C344.735 501.74 344.165 501.02 343.805 500.12L321.485 444.68H324.005L301.325 500.12C300.905 501.08 300.275 501.8 299.435 502.28C298.655 502.76 297.845 503 297.005 503ZM301.775 487.52L305.375 479.78H340.655L344.255 487.52H301.775Z" fill="#302460"/>
<path d="M226.076 503C224.756 503 223.646 502.55 222.746 501.65C221.846 500.75 221.396 499.64 221.396 498.32V437.39C221.396 436.01 221.846 434.9 222.746 434.06C223.646 433.16 224.756 432.71 226.076 432.71C227.456 432.71 228.566 433.16 229.406 434.06C230.306 434.9 230.756 436.01 230.756 437.39V463.22H272.516V437.39C272.516 436.01 272.966 434.9 273.866 434.06C274.766 433.16 275.876 432.71 277.196 432.71C278.576 432.71 279.686 433.16 280.526 434.06C281.366 434.9 281.786 436.01 281.786 437.39V498.32C281.786 499.64 281.366 500.75 280.526 501.65C279.686 502.55 278.576 503 277.196 503C275.876 503 274.766 502.55 273.866 501.65C272.966 500.75 272.516 499.64 272.516 498.32V471.5H230.756V498.32C230.756 499.64 230.306 500.75 229.406 501.65C228.566 502.55 227.456 503 226.076 503Z" fill="#302460"/>
<path d="M182.936 503.9C178.076 503.9 173.516 503 169.256 501.2C165.056 499.34 161.366 496.79 158.186 493.55C155.066 490.25 152.606 486.41 150.806 482.03C149.066 477.65 148.196 472.91 148.196 467.81C148.196 462.77 149.066 458.09 150.806 453.77C152.606 449.39 155.066 445.58 158.186 442.34C161.366 439.04 165.056 436.46 169.256 434.6C173.456 432.74 178.016 431.81 182.936 431.81C187.556 431.81 191.516 432.41 194.816 433.61C198.176 434.81 201.536 436.79 204.896 439.55C205.376 439.91 205.736 440.3 205.976 440.72C206.276 441.08 206.456 441.47 206.516 441.89C206.636 442.25 206.696 442.7 206.696 443.24C206.696 444.38 206.276 445.34 205.436 446.12C204.656 446.84 203.696 447.26 202.556 447.38C201.416 447.44 200.306 447.05 199.226 446.21C197.006 444.29 194.696 442.82 192.296 441.8C189.956 440.78 186.836 440.27 182.936 440.27C179.396 440.27 176.066 440.99 172.946 442.43C169.826 443.87 167.066 445.85 164.666 448.37C162.326 450.89 160.496 453.83 159.176 457.19C157.856 460.49 157.196 464.03 157.196 467.81C157.196 471.65 157.856 475.25 159.176 478.61C160.496 481.91 162.326 484.82 164.666 487.34C167.066 489.86 169.826 491.84 172.946 493.28C176.066 494.66 179.396 495.35 182.936 495.35C185.996 495.35 188.876 494.84 191.576 493.82C194.336 492.74 196.976 491.27 199.496 489.41C200.576 488.63 201.626 488.3 202.646 488.42C203.726 488.48 204.626 488.9 205.346 489.68C206.066 490.4 206.426 491.42 206.426 492.74C206.426 493.34 206.306 493.94 206.066 494.54C205.826 495.08 205.466 495.59 204.986 496.07C201.746 498.65 198.266 500.6 194.546 501.92C190.886 503.24 187.016 503.9 182.936 503.9Z" fill="#302460"/>
<path d="M93.098 503C91.778 503 90.668 502.55 89.768 501.65C88.868 500.75 88.418 499.64 88.418 498.32V437.39C88.418 436.01 88.868 434.9 89.768 434.06C90.668 433.16 91.778 432.71 93.098 432.71H133.778C135.158 432.71 136.268 433.13 137.108 433.97C137.948 434.75 138.368 435.8 138.368 437.12C138.368 438.38 137.948 439.4 137.108 440.18C136.268 440.96 135.158 441.35 133.778 441.35H97.778V463.22H123.608C124.988 463.22 126.098 463.64 126.938 464.48C127.778 465.26 128.198 466.28 128.198 467.54C128.198 468.8 127.778 469.85 126.938 470.69C126.098 471.47 124.988 471.86 123.608 471.86H97.778V494.36H133.778C135.158 494.36 136.268 494.75 137.108 495.53C137.948 496.31 138.368 497.33 138.368 498.59C138.368 499.91 137.948 500.99 137.108 501.83C136.268 502.61 135.158 503 133.778 503H93.098Z" fill="#302460"/>
<path d="M4.68 503C3.36 503 2.25 502.55 1.35 501.65C0.45 500.75 0 499.64 0 498.32V437.39C0 436.01 0.45 434.9 1.35 434.06C2.25 433.16 3.36 432.71 4.68 432.71C6.48 432.71 7.86 433.55 8.82 435.23L36.99 491.66H34.11L61.56 435.23C62.52 433.55 63.9 432.71 65.7 432.71C67.02 432.71 68.13 433.16 69.03 434.06C69.93 434.9 70.38 436.01 70.38 437.39V498.32C70.38 499.64 69.9 500.75 68.94 501.65C68.04 502.55 66.96 503 65.7 503C64.38 503 63.27 502.55 62.37 501.65C61.47 500.75 61.02 499.64 61.02 498.32V450.35L62.82 449.9L39.24 497.96C38.22 499.52 36.87 500.3 35.19 500.3C33.21 500.3 31.77 499.37 30.87 497.51L7.56 450.8L9.36 450.35V498.32C9.36 499.64 8.91 500.75 8.01 501.65C7.11 502.55 6 503 4.68 503Z" fill="#302460"/>
<path d="M535.296 613.824C535.787 613.739 536.309 613.664 536.864 613.6C537.44 613.515 538.006 613.451 538.56 613.408C539.136 613.365 539.691 613.333 540.224 613.312C540.758 613.291 541.248 613.28 541.696 613.28C542.742 613.28 543.766 613.376 544.768 613.568C545.792 613.76 546.699 614.091 547.488 614.56C548.299 615.029 548.939 615.68 549.408 616.512C549.899 617.323 550.144 618.347 550.144 619.584C550.144 621.419 549.717 622.912 548.864 624.064C548.011 625.216 546.87 626.016 545.44 626.464L547.008 627.456L552.128 636H547.072L541.984 627.232L539.68 626.816V636H535.296V613.824ZM542.016 617.184C541.568 617.184 541.12 617.195 540.672 617.216C540.246 617.237 539.915 617.28 539.68 617.344V623.84H541.536C542.752 623.84 543.723 623.563 544.448 623.008C545.174 622.453 545.536 621.536 545.536 620.256C545.536 619.296 545.237 618.549 544.64 618.016C544.043 617.461 543.168 617.184 542.016 617.184Z" fill="#8C58CF"/>
<path d="M492.018 613.6H505.298V617.504H496.402V622.72H504.498V626.624H496.402V632.096H505.458V636H492.018V613.6Z" fill="#8C58CF"/>
<path d="M447.145 613.824C448.041 613.653 449.022 613.525 450.089 613.44C451.177 613.333 452.254 613.28 453.321 613.28C454.43 613.28 455.54 613.376 456.649 613.568C457.78 613.739 458.793 614.101 459.689 614.656C460.585 615.189 461.31 615.947 461.865 616.928C462.441 617.888 462.729 619.147 462.729 620.704C462.729 622.112 462.484 623.307 461.993 624.288C461.502 625.248 460.852 626.037 460.041 626.656C459.23 627.275 458.302 627.723 457.257 628C456.233 628.277 455.166 628.416 454.057 628.416C453.95 628.416 453.78 628.416 453.545 628.416C453.31 628.416 453.065 628.416 452.809 628.416C452.553 628.395 452.297 628.373 452.041 628.352C451.806 628.331 451.636 628.309 451.529 628.288V636H447.145V613.824ZM453.673 617.056C453.246 617.056 452.841 617.077 452.457 617.12C452.073 617.141 451.764 617.173 451.529 617.216V624.48C451.614 624.501 451.742 624.523 451.913 624.544C452.084 624.565 452.265 624.587 452.457 624.608C452.649 624.608 452.83 624.608 453.001 624.608C453.193 624.608 453.332 624.608 453.417 624.608C453.993 624.608 454.558 624.555 455.113 624.448C455.689 624.341 456.201 624.149 456.649 623.872C457.097 623.573 457.449 623.168 457.705 622.656C457.982 622.144 458.121 621.472 458.121 620.64C458.121 619.936 457.993 619.36 457.737 618.912C457.481 618.443 457.14 618.069 456.713 617.792C456.308 617.515 455.838 617.323 455.305 617.216C454.772 617.109 454.228 617.056 453.673 617.056Z" fill="#8C58CF"/>
<path d="M398.443 624.8C398.443 621.067 399.265 618.197 400.907 616.192C402.55 614.165 404.897 613.152 407.947 613.152C409.547 613.152 410.945 613.429 412.139 613.984C413.334 614.539 414.326 615.328 415.115 616.352C415.905 617.376 416.491 618.603 416.875 620.032C417.259 621.461 417.451 623.051 417.451 624.8C417.451 628.533 416.619 631.413 414.955 633.44C413.313 635.445 410.977 636.448 407.947 636.448C406.326 636.448 404.918 636.171 403.723 635.616C402.529 635.061 401.537 634.272 400.747 633.248C399.979 632.224 399.403 630.997 399.019 629.568C398.635 628.139 398.443 626.549 398.443 624.8ZM403.051 624.8C403.051 625.931 403.147 626.976 403.339 627.936C403.531 628.875 403.819 629.685 404.203 630.368C404.609 631.051 405.121 631.584 405.739 631.968C406.358 632.352 407.094 632.544 407.947 632.544C409.505 632.544 410.71 631.936 411.563 630.72C412.417 629.504 412.843 627.531 412.843 624.8C412.843 623.712 412.747 622.699 412.555 621.76C412.385 620.821 412.107 620 411.723 619.296C411.339 618.592 410.838 618.048 410.219 617.664C409.601 617.259 408.843 617.056 407.947 617.056C406.39 617.056 405.185 617.685 404.331 618.944C403.478 620.181 403.051 622.133 403.051 624.8Z" fill="#8C58CF"/>
<path d="M373.295 636H359.119V613.6H363.503V632.096H373.295V636Z" fill="#8C58CF"/>
<path d="M315.84 613.6H329.12V617.504H320.224V622.72H328.32V626.624H320.224V632.096H329.28V636H315.84V613.6Z" fill="#8C58CF"/>
<path d="M277.39 626.752L277.966 630.56H278.126L278.766 626.72L283.054 613.6H287.662L279.342 636.16H276.206L267.822 613.6H272.91L277.39 626.752Z" fill="#8C58CF"/>
<path d="M226.751 613.6H240.031V617.504H231.135V622.72H239.231V626.624H231.135V632.096H240.191V636H226.751V613.6Z" fill="#8C58CF"/>
<path d="M179.472 613.6C179.92 613.536 180.422 613.483 180.976 613.44C181.552 613.397 182.139 613.365 182.736 613.344C183.334 613.323 183.91 613.312 184.464 613.312C185.04 613.291 185.552 613.28 186 613.28C187.984 613.28 189.68 613.557 191.088 614.112C192.496 614.667 193.638 615.445 194.512 616.448C195.387 617.451 196.027 618.645 196.432 620.032C196.838 621.419 197.04 622.944 197.04 624.608C197.04 626.123 196.848 627.584 196.464 628.992C196.08 630.4 195.44 631.648 194.544 632.736C193.648 633.824 192.464 634.699 190.992 635.36C189.542 636.021 187.739 636.352 185.584 636.352C185.243 636.352 184.784 636.341 184.208 636.32C183.654 636.299 183.067 636.267 182.448 636.224C181.851 636.203 181.275 636.171 180.72 636.128C180.166 636.107 179.75 636.075 179.472 636.032V613.6ZM186.352 617.184C185.883 617.184 185.403 617.195 184.912 617.216C184.443 617.237 184.091 617.269 183.856 617.312V632.32C183.942 632.341 184.08 632.363 184.272 632.384C184.486 632.384 184.71 632.395 184.944 632.416C185.179 632.416 185.403 632.427 185.616 632.448C185.83 632.448 185.99 632.448 186.096 632.448C187.334 632.448 188.358 632.235 189.168 631.808C190 631.36 190.651 630.773 191.12 630.048C191.611 629.323 191.952 628.491 192.144 627.552C192.336 626.592 192.432 625.611 192.432 624.608C192.432 623.733 192.347 622.859 192.176 621.984C192.006 621.088 191.686 620.288 191.216 619.584C190.768 618.88 190.15 618.304 189.36 617.856C188.571 617.408 187.568 617.184 186.352 617.184Z" fill="#8C58CF"/>
<path d="M114.425 618.816C114.425 619.371 114.35 619.925 114.201 620.48C114.073 621.035 113.849 621.547 113.529 622.016C113.209 622.464 112.793 622.869 112.281 623.232C111.769 623.573 111.15 623.829 110.425 624V624.192C111.065 624.299 111.673 624.48 112.249 624.736C112.825 624.992 113.326 625.344 113.753 625.792C114.179 626.24 114.51 626.784 114.745 627.424C115.001 628.064 115.129 628.821 115.129 629.696C115.129 630.848 114.883 631.851 114.393 632.704C113.902 633.536 113.241 634.219 112.409 634.752C111.598 635.285 110.67 635.68 109.625 635.936C108.579 636.192 107.502 636.32 106.393 636.32C106.03 636.32 105.561 636.32 104.985 636.32C104.43 636.32 103.822 636.299 103.161 636.256C102.521 636.235 101.859 636.192 101.177 636.128C100.515 636.064 99.9072 635.968 99.3525 635.84V613.76C99.7579 613.696 100.217 613.632 100.729 613.568C101.262 613.504 101.827 613.451 102.425 613.408C103.022 613.365 103.63 613.333 104.249 613.312C104.889 613.291 105.518 613.28 106.137 613.28C107.182 613.28 108.195 613.365 109.177 613.536C110.179 613.685 111.065 613.963 111.833 614.368C112.622 614.773 113.251 615.339 113.721 616.064C114.19 616.789 114.425 617.707 114.425 618.816ZM106.425 632.704C106.958 632.704 107.47 632.64 107.961 632.512C108.473 632.384 108.921 632.192 109.305 631.936C109.689 631.659 109.998 631.317 110.233 630.912C110.467 630.507 110.585 630.027 110.585 629.472C110.585 628.768 110.446 628.213 110.169 627.808C109.891 627.403 109.529 627.093 109.081 626.88C108.633 626.645 108.131 626.496 107.577 626.432C107.022 626.368 106.467 626.336 105.913 626.336H103.577V632.512C103.683 632.555 103.854 632.587 104.089 632.608C104.323 632.629 104.569 632.651 104.825 632.672C105.102 632.672 105.379 632.683 105.657 632.704C105.955 632.704 106.211 632.704 106.425 632.704ZM104.985 623.008C105.283 623.008 105.625 622.997 106.009 622.976C106.414 622.955 106.745 622.923 107.001 622.88C107.811 622.624 108.505 622.24 109.081 621.728C109.678 621.216 109.977 620.544 109.977 619.712C109.977 619.157 109.87 618.699 109.657 618.336C109.443 617.973 109.155 617.685 108.793 617.472C108.451 617.259 108.057 617.109 107.609 617.024C107.161 616.939 106.691 616.896 106.201 616.896C105.646 616.896 105.134 616.907 104.665 616.928C104.195 616.949 103.833 616.981 103.577 617.024V623.008H104.985Z" fill="#8C58CF"/>
<path d="M56.0737 613.6H69.3537V617.504H60.4577V622.72H68.5537V626.624H60.4577V632.096H69.5137V636H56.0737V613.6Z" fill="#8C58CF"/>
<path d="M7.744 626.112L8.16 630.08H8.288L8.736 626.048L12.64 613.6H15.52L19.36 626.112L19.808 630.08H19.936L20.416 626.048L23.136 613.6H27.584L21.408 636.16H18.464L14.464 623.712L13.92 620.288H13.76L13.216 623.744L9.248 636.16H6.144L0 613.6H4.768L7.744 626.112Z" fill="#8C58CF"/>
<path d="M245.076 586C243.849 586 242.969 585.493 242.436 584.48C241.902 583.467 241.849 582.48 242.276 581.52L265.796 525.68C266.382 524.24 267.396 523.52 268.836 523.52C270.222 523.52 271.209 524.24 271.796 525.68L295.396 581.6C295.876 582.613 295.796 583.6 295.156 584.56C294.569 585.52 293.716 586 292.596 586C291.956 586 291.369 585.84 290.836 585.52C290.356 585.2 289.956 584.72 289.636 584.08L267.636 530.72H270.116L247.956 584.08C247.689 584.72 247.289 585.2 246.756 585.52C246.276 585.84 245.716 586 245.076 586ZM250.356 571.12L252.756 565.76H285.236L287.636 571.12H250.356Z" fill="#4D3C93"/>
<path d="M185.62 586C184.713 586 183.967 585.707 183.38 585.12C182.793 584.533 182.5 583.787 182.5 582.88V526.64C182.5 525.733 182.793 524.987 183.38 524.4C183.967 523.813 184.713 523.52 185.62 523.52C186.58 523.52 187.38 523.893 188.02 524.64L226.26 574.88V526.64C226.26 525.733 226.553 524.987 227.14 524.4C227.727 523.813 228.473 523.52 229.38 523.52C230.233 523.52 230.953 523.813 231.54 524.4C232.18 524.987 232.5 525.733 232.5 526.64V582.88C232.5 583.787 232.18 584.533 231.54 585.12C230.953 585.707 230.233 586 229.38 586C228.953 586 228.527 585.92 228.1 585.76C227.673 585.6 227.327 585.333 227.06 584.96L188.74 534.72V582.88C188.74 583.787 188.42 584.533 187.78 585.12C187.193 585.707 186.473 586 185.62 586Z" fill="#4D3C93"/>
<path d="M141.833 587.28C136.98 587.28 132.66 586.347 128.873 584.48C125.14 582.613 122.206 580.027 120.073 576.72C117.993 573.413 116.953 569.627 116.953 565.36V526.64C116.953 525.733 117.246 524.987 117.833 524.4C118.42 523.813 119.166 523.52 120.073 523.52C120.98 523.52 121.726 523.813 122.313 524.4C122.9 524.987 123.193 525.733 123.193 526.64V565.36C123.193 568.507 123.966 571.28 125.513 573.68C127.113 576.08 129.326 577.973 132.153 579.36C134.98 580.693 138.206 581.36 141.833 581.36C145.406 581.36 148.58 580.693 151.353 579.36C154.126 577.973 156.286 576.08 157.833 573.68C159.433 571.28 160.233 568.507 160.233 565.36V526.64C160.233 525.733 160.526 524.987 161.113 524.4C161.7 523.813 162.446 523.52 163.353 523.52C164.313 523.52 165.06 523.813 165.593 524.4C166.18 524.987 166.473 525.733 166.473 526.64V565.36C166.473 569.627 165.406 573.413 163.273 576.72C161.193 580.027 158.286 582.613 154.553 584.48C150.873 586.347 146.633 587.28 141.833 587.28Z" fill="#4D3C93"/>
<path d="M64.6825 586C63.7758 586 63.0292 585.707 62.4425 585.12C61.8558 584.533 61.5625 583.787 61.5625 582.88V526.64C61.5625 525.733 61.8558 524.987 62.4425 524.4C63.0292 523.813 63.7758 523.52 64.6825 523.52H102.202C103.056 523.52 103.776 523.813 104.363 524.4C105.003 524.933 105.323 525.653 105.323 526.56C105.323 527.36 105.003 528.053 104.363 528.64C103.776 529.227 103.056 529.52 102.202 529.52H67.8025V551.6H92.8425C93.7492 551.6 94.4958 551.893 95.0825 552.48C95.6692 553.067 95.9625 553.787 95.9625 554.64C95.9625 555.493 95.6692 556.213 95.0825 556.8C94.4958 557.387 93.7492 557.68 92.8425 557.68H67.8025V580H102.202C103.056 580 103.776 580.293 104.363 580.88C105.003 581.467 105.323 582.16 105.323 582.96C105.323 583.867 105.003 584.613 104.363 585.2C103.776 585.733 103.056 586 102.202 586H64.6825Z" fill="#4D3C93"/>
<path d="M3.12 586C2.21333 586 1.46667 585.707 0.880001 585.12C0.293334 584.533 0 583.787 0 582.88V526.64C0 525.733 0.293334 524.987 0.880001 524.4C1.46667 523.813 2.21333 523.52 3.12 523.52H17.52C22.1067 523.52 26.2933 524.293 30.08 525.84C33.92 527.333 37.2267 529.493 40 532.32C42.7733 535.093 44.9067 538.373 46.4 542.16C47.9467 545.947 48.72 550.133 48.72 554.72C48.72 559.307 47.9467 563.52 46.4 567.36C44.9067 571.147 42.7733 574.453 40 577.28C37.2267 580.053 33.92 582.213 30.08 583.76C26.2933 585.253 22.1067 586 17.52 586H3.12ZM6.24 580.4H17.52C22.4267 580.4 26.7467 579.307 30.48 577.12C34.2667 574.88 37.2267 571.84 39.36 568C41.4933 564.107 42.56 559.68 42.56 554.72C42.56 549.76 41.4933 545.36 39.36 541.52C37.2267 537.627 34.2667 534.587 30.48 532.4C26.7467 530.213 22.4267 529.12 17.52 529.12H6.24V580.4Z" fill="#4D3C93"/>
<path fill-rule="evenodd" clip-rule="evenodd" d="M305.5 557C305.5 555.619 306.619 554.5 308 554.5H538C539.381 554.5 540.5 555.619 540.5 557C540.5 558.381 539.381 559.5 538 559.5H308C306.619 559.5 305.5 558.381 305.5 557Z" fill="black"/>
<defs>
<radialGradient id="paint0_radial_17_615" cx="0" cy="0" r="1" gradientUnits="userSpaceOnUse" gradientTransform="translate(250.5 190.062) rotate(-90) scale(179.5 201.5)">
<stop stop-color="#B456C4"/>
<stop offset="1" stop-color="#37295D"/>
</radialGradient>
<radialGradient id="paint1_radial_17_615" cx="0" cy="0" r="1" gradientUnits="userSpaceOnUse" gradientTransform="translate(318.984 200.372) rotate(72.3599) scale(89.7533 60.8425)">
<stop stop-color="#B456C4"/>
<stop offset="1" stop-color="#37295D"/>
</radialGradient>
<radialGradient id="paint2_radial_17_615" cx="0" cy="0" r="1" gradientUnits="userSpaceOnUse" gradientTransform="translate(305.651 167.606) rotate(107.64) scale(136.947 120.565)">
<stop stop-color="#B456C4"/>
<stop offset="1" stop-color="#37295D"/>
</radialGradient>
<radialGradient id="paint3_radial_17_615" cx="0" cy="0" r="1" gradientUnits="userSpaceOnUse" gradientTransform="translate(360.75 287.445) rotate(33.6403) scale(0.5 107.787)">
<stop stop-color="#B456C4"/>
<stop offset="1" stop-color="#37295D"/>
</radialGradient>
<radialGradient id="paint4_radial_17_615" cx="0" cy="0" r="1" gradientUnits="userSpaceOnUse" gradientTransform="translate(250.5 190.062) rotate(-90) scale(179.5 201.5)">
<stop stop-color="#B456C4"/>
<stop offset="1" stop-color="#37295D"/>
</radialGradient>
<radialGradient id="paint5_radial_17_615" cx="0" cy="0" r="1" gradientUnits="userSpaceOnUse" gradientTransform="translate(318.984 200.372) rotate(72.3599) scale(89.7533 60.8425)">
<stop stop-color="#B456C4"/>
<stop offset="1" stop-color="#37295D"/>
</radialGradient>
<radialGradient id="paint6_radial_17_615" cx="0" cy="0" r="1" gradientUnits="userSpaceOnUse" gradientTransform="translate(305.651 167.606) rotate(107.64) scale(136.947 120.565)">
<stop stop-color="#B456C4"/>
<stop offset="1" stop-color="#37295D"/>
</radialGradient>
<radialGradient id="paint7_radial_17_615" cx="0" cy="0" r="1" gradientUnits="userSpaceOnUse" gradientTransform="translate(360.75 287.445) rotate(33.6403) scale(0.5 107.787)">
<stop stop-color="#B456C4"/>
<stop offset="1" stop-color="#37295D"/>
</radialGradient>
</defs>
</svg>
