<svg width="34" height="34" viewBox="0 0 34 34" fill="none" xmlns="http://www.w3.org/2000/svg">
<path fill-rule="evenodd" clip-rule="evenodd" d="M7.28571 0H26.7143C30.7381 0 34 3.26193 34 7.28571V26.7143C34 30.7381 30.7381 34 26.7143 34H7.28571C3.26193 34 0 30.7381 0 26.7143V7.28571C0 3.26193 3.26193 0 7.28571 0ZM24 13C25.1045 13 26 12.1045 26 11C26 9.89543 25.1045 9 24 9C22.8955 9 22 9.89543 22 11C22 12.1045 22.8955 13 24 13ZM17 23C20.3137 23 23 20.3137 23 17C23 13.6863 20.3137 11 17 11C13.6863 11 11 13.6863 11 17C11 20.3137 13.6863 23 17 23ZM17 20.6C18.9883 20.6 20.6 18.9883 20.6 17C20.6 15.0117 18.9883 13.4 17 13.4C15.0117 13.4 13.4 15.0117 13.4 17C13.4 18.9883 15.0117 20.6 17 20.6ZM5.78475 8.93127C5 10.4714 5 12.4876 5 16.52V17.48C5 21.5124 5 23.5286 5.78475 25.0687C6.47504 26.4235 7.5765 27.525 8.93127 28.2152C10.4714 29 12.4876 29 16.52 29H17.48C21.5124 29 23.5286 29 25.0687 28.2152C26.4235 27.525 27.525 26.4235 28.2152 25.0687C29 23.5286 29 21.5124 29 17.48V16.52C29 12.4876 29 10.4714 28.2152 8.93127C27.525 7.5765 26.4235 6.47504 25.0687 5.78475C23.5286 5 21.5124 5 17.48 5H16.52C12.4876 5 10.4714 5 8.93127 5.78475C7.5765 6.47504 6.47504 7.5765 5.78475 8.93127ZM17.48 7.4H16.52C14.4642 7.4 13.0668 7.40187 11.9865 7.49012C10.9342 7.57609 10.3962 7.73191 10.0208 7.92316C9.11767 8.38336 8.38336 9.11767 7.92316 10.0208C7.73191 10.3962 7.57609 10.9342 7.49012 11.9865C7.40187 13.0668 7.4 14.4642 7.4 16.52V17.48C7.4 19.5358 7.40187 20.9332 7.49012 22.0135C7.57609 23.0658 7.73191 23.6038 7.92316 23.9792C8.38336 24.8823 9.11767 25.6166 10.0208 26.0768C10.3962 26.2681 10.9342 26.424 11.9865 26.5099C13.0668 26.5981 14.4642 26.6 16.52 26.6H17.48C19.5358 26.6 20.9332 26.5981 22.0135 26.5099C23.0658 26.424 23.6038 26.2681 23.9792 26.0768C24.8823 25.6166 25.6166 24.8823 26.0768 23.9792C26.2681 23.6038 26.424 23.0658 26.5099 22.0135C26.5981 20.9332 26.6 19.5358 26.6 17.48V16.52C26.6 14.4642 26.5981 13.0668 26.5099 11.9865C26.424 10.9342 26.2681 10.3962 26.0768 10.0208C25.6166 9.11767 24.8823 8.38336 23.9792 7.92316C23.6038 7.73191 23.0658 7.57609 22.0135 7.49012C20.9332 7.40187 19.5358 7.4 17.48 7.4Z" fill="#86469C"/>
</svg>
