<svg width="37" height="37" viewBox="0 0 37 37" fill="none" xmlns="http://www.w3.org/2000/svg">
<path d="M35.15 0H1.85C1.35935 0 0.888795 0.19491 0.541852 0.541852C0.19491 0.888795 0 1.35935 0 1.85V35.15C0 35.6407 0.19491 36.1112 0.541852 36.4581C0.888795 36.8051 1.35935 37 1.85 37H35.15C35.6407 37 36.1112 36.8051 36.4581 36.4581C36.8051 36.1112 37 35.6407 37 35.15V1.85C37 1.35935 36.8051 0.888795 36.4581 0.541852C36.1112 0.19491 35.6407 0 35.15 0ZM29.0802 16.1413C28.8785 16.1616 28.675 16.1708 28.4734 16.1727C27.3757 16.1741 26.2951 15.9021 25.329 15.3811C24.3629 14.8601 23.5418 14.1066 22.94 13.1886V23.3507C22.9404 24.8368 22.5 26.2895 21.6746 27.5253C20.8492 28.7611 19.6759 29.7243 18.303 30.2932C16.9302 30.862 15.4194 31.011 13.9619 30.7211C12.5044 30.4313 11.1656 29.7157 10.1148 28.6649C9.06396 27.6141 8.34839 26.2753 8.05857 24.8178C7.76874 23.3603 7.91768 21.8495 8.48654 20.4767C9.05539 19.1038 10.0186 17.9305 11.2544 17.1051C12.4902 16.2797 13.9429 15.8393 15.429 15.8397C15.5863 15.8397 15.7379 15.8545 15.8933 15.8637V19.5637C15.3758 19.5011 14.8508 19.5449 14.3508 19.6925C13.8507 19.8401 13.3862 20.0885 12.9856 20.4222C12.5851 20.756 12.257 21.1681 12.0216 21.6333C11.7862 22.0985 11.6484 22.607 11.6167 23.1274C11.5849 23.6478 11.66 24.1692 11.8372 24.6595C12.0144 25.1499 12.29 25.5988 12.647 25.9787C13.0041 26.3587 13.4351 26.6615 13.9135 26.8688C14.3919 27.0761 14.9076 27.1833 15.429 27.1839C16.4579 27.2025 17.453 26.8166 18.2003 26.1091C18.9476 25.4016 19.3874 24.429 19.425 23.4007L19.462 6.1383H23.0029C23.1646 7.67649 23.8618 9.10889 24.9728 10.185C26.0837 11.2611 27.5376 11.9124 29.0802 12.025V16.1413Z" fill="#86469C"/>
</svg>
